<svg class="animated" id="freepik_stories-refund" xmlns="http://www.w3.org/2000/svg" viewBox="0 0 500 500" version="1.1" xmlns:xlink="http://www.w3.org/1999/xlink" xmlns:svgjs="http://svgjs.com/svgjs"><style>svg#freepik_stories-refund:not(.animated) .animable {opacity: 0;}svg#freepik_stories-refund.animated #freepik--coin-2--inject-4 {animation: 1.5s Infinite  linear floating;animation-delay: 0s;}svg#freepik_stories-refund.animated #freepik--coin-1--inject-4 {animation: 1.5s Infinite  linear floating;animation-delay: 0s;}svg#freepik_stories-refund.animated #freepik--Arrow--inject-4 {animation: 1.5s Infinite  linear floating;animation-delay: 0s;}            @keyframes floating {                0% {                    opacity: 1;                    transform: translateY(0px);                }                50% {                    transform: translateY(-10px);                }                100% {                    opacity: 1;                    transform: translateY(0px);                }            }        </style><g id="freepik--background-complete--inject-4" class="animable" style="transform-origin: 250px 228.23px;"><rect y="382.4" width="500" height="0.25" style="fill: rgb(235, 235, 235); transform-origin: 250px 382.525px;" id="elbn5rkpsb005" class="animable"></rect><rect x="416.78" y="398.49" width="33.12" height="0.25" style="fill: rgb(235, 235, 235); transform-origin: 433.34px 398.615px;" id="el52cwlfaouef" class="animable"></rect><rect x="322.53" y="401.21" width="8.69" height="0.25" style="fill: rgb(235, 235, 235); transform-origin: 326.875px 401.335px;" id="elaql4xisi0m" class="animable"></rect><rect x="396.59" y="389.21" width="19.19" height="0.25" style="fill: rgb(235, 235, 235); transform-origin: 406.185px 389.335px;" id="elxu77licdjem" class="animable"></rect><rect x="52.46" y="390.89" width="43.19" height="0.25" style="fill: rgb(235, 235, 235); transform-origin: 74.055px 391.015px;" id="elyqy9eskbpp" class="animable"></rect><rect x="104.56" y="390.89" width="6.33" height="0.25" style="fill: rgb(235, 235, 235); transform-origin: 107.725px 391.015px;" id="elpcfl2hvhtcm" class="animable"></rect><rect x="131.47" y="395.11" width="93.68" height="0.25" style="fill: rgb(235, 235, 235); transform-origin: 178.31px 395.235px;" id="eljrazaou8rzb" class="animable"></rect><path d="M237,337.8H43.91a5.71,5.71,0,0,1-5.7-5.71V60.66A5.71,5.71,0,0,1,43.91,55H237a5.71,5.71,0,0,1,5.71,5.71V332.09A5.71,5.71,0,0,1,237,337.8ZM43.91,55.2a5.46,5.46,0,0,0-5.45,5.46V332.09a5.46,5.46,0,0,0,5.45,5.46H237a5.47,5.47,0,0,0,5.46-5.46V60.66A5.47,5.47,0,0,0,237,55.2Z" style="fill: rgb(235, 235, 235); transform-origin: 140.46px 196.4px;" id="elyw7z7e1js1o" class="animable"></path><path d="M453.31,337.8H260.21a5.72,5.72,0,0,1-5.71-5.71V60.66A5.72,5.72,0,0,1,260.21,55h193.1A5.71,5.71,0,0,1,459,60.66V332.09A5.71,5.71,0,0,1,453.31,337.8ZM260.21,55.2a5.47,5.47,0,0,0-5.46,5.46V332.09a5.47,5.47,0,0,0,5.46,5.46h193.1a5.47,5.47,0,0,0,5.46-5.46V60.66a5.47,5.47,0,0,0-5.46-5.46Z" style="fill: rgb(235, 235, 235); transform-origin: 356.75px 196.4px;" id="elnf2sbbfsgri" class="animable"></path><path d="M318.67,286.12H433a7.85,7.85,0,0,1-7.5,7.84c-12.28.55-31.18,2.49-37.18,9.29-11.17,12.67-10.09,57.19,3.3,67.5C395.8,374,408,380.4,408,380.4H343.62s11.43-6.55,15.4-9.65c13.31-10.4,13.7-54.88,2.47-67.5-5.76-6.47-23.47-8.56-35.36-9.22A7.91,7.91,0,0,1,318.67,286.12Z" style="fill: rgb(245, 245, 245); transform-origin: 375.835px 333.26px;" id="elpopx9r40o9l" class="animable"></path><path d="M418.83,294.37c-11.61.93-25.53,3.23-30.52,8.88a22.81,22.81,0,0,0-3.78,6.55h-19.2a22.61,22.61,0,0,0-3.84-6.55c-5-5.62-19-7.94-30.42-8.88Z" style="fill: rgb(230, 230, 230); transform-origin: 374.95px 302.085px;" id="elr1ynmqk8we" class="animable"></path><polygon points="367.37 286.18 368.92 268.41 346.38 268.41 344.83 286.18 367.37 286.18" style="fill: rgb(235, 235, 235); transform-origin: 356.875px 277.295px;" id="el4f8g1gadyw" class="animable"></polygon><polygon points="367.37 286.18 368.92 268.41 370.13 268.41 368.58 286.18 367.37 286.18" style="fill: rgb(224, 224, 224); transform-origin: 368.75px 277.295px;" id="eltflf1uecij" class="animable"></polygon><polygon points="365.23 284.37 366.46 270.22 348.52 270.22 347.29 284.37 365.23 284.37" style="fill: rgb(240, 240, 240); transform-origin: 356.875px 277.295px;" id="elpq3esk8rcyn" class="animable"></polygon><polygon points="363.85 283.2 364.88 271.39 349.9 271.39 348.87 283.2 363.85 283.2" style="fill: rgb(250, 250, 250); transform-origin: 356.875px 277.295px;" id="elkck36z9i5h" class="animable"></polygon><polygon points="374.68 286.12 397.31 286.12 394.8 257.42 372.16 257.42 374.68 286.12" style="fill: rgb(230, 230, 230); transform-origin: 384.735px 271.77px;" id="els290hkk8m2" class="animable"></polygon><polygon points="374.68 286.12 373.59 286.12 371.08 257.42 372.16 257.42 374.68 286.12" style="fill: rgb(224, 224, 224); transform-origin: 372.88px 271.77px;" id="eljy0vbs8lb9a" class="animable"></polygon><polygon points="376.73 283.2 394.75 283.2 392.75 260.34 374.73 260.34 376.73 283.2" style="fill: rgb(240, 240, 240); transform-origin: 384.74px 271.77px;" id="elksr8g5m318m" class="animable"></polygon><polygon points="378.05 281.31 393.1 281.31 391.43 262.22 376.38 262.22 378.05 281.31" style="fill: rgb(250, 250, 250); transform-origin: 384.74px 271.765px;" id="el76vnn9vsx99" class="animable"></polygon><path d="M385.65,270.81h0a2.6,2.6,0,0,1-3.7,0h0a2.6,2.6,0,0,1,0-3.7h0a2.62,2.62,0,0,1,3.7,0h0A2.62,2.62,0,0,1,385.65,270.81Z" style="fill: rgb(235, 235, 235); transform-origin: 383.796px 268.964px;" id="ellwtbofqim7b" class="animable"></path><path d="M384.54,274h0a1.91,1.91,0,0,1,2.71,0h0a1.91,1.91,0,0,1-1.35,3.27h0A1.92,1.92,0,0,1,384.54,274Z" style="fill: rgb(240, 240, 240); transform-origin: 385.902px 275.353px;" id="eli17slyp36q8" class="animable"></path><path d="M192.69,374.53h22l-11.59-94.41a8.41,8.41,0,0,0-8.12-7.23H98.81l14.11,101.64Z" style="fill: rgb(245, 245, 245); transform-origin: 156.75px 323.71px;" id="elf248474wf1r" class="animable"></path><path d="M122.76,374.53H100.71L89.12,280.12a6.26,6.26,0,0,1,6.35-7.23H103a8.42,8.42,0,0,1,8.13,7.23Z" style="fill: rgb(240, 240, 240); transform-origin: 105.902px 323.709px;" id="ely431y2rx3a" class="animable"></path><path d="M130.88,374.41l-4-45.66a4.34,4.34,0,0,0-3.79-3.93l-1.64-.21a5.84,5.84,0,0,1-5.08-5.29l-.73-8.32a5.84,5.84,0,0,1,5.82-6.35H84.62A5.84,5.84,0,0,0,78.81,311l.72,8.32a5.85,5.85,0,0,0,5.08,5.29l1.64.21A4.34,4.34,0,0,1,90,328.75l4,45.66a6.45,6.45,0,0,0,6.42,5.89H137.3A6.45,6.45,0,0,1,130.88,374.41Z" style="fill: rgb(230, 230, 230); transform-origin: 108.044px 342.475px;" id="elifj1ipqqjsb" class="animable"></path><path d="M232.28,317.32a13.88,13.88,0,0,1,13.83-12.67H214a13.89,13.89,0,0,0-13.83,12.67L197,353.52h32.08Z" style="fill: rgb(230, 230, 230); transform-origin: 221.555px 329.085px;" id="elc0s7uabcyb" class="animable"></path><path d="M260.36,304.65H246.11a13.88,13.88,0,0,0-13.83,12.67l-3.16,36.2H152.71l-3.16-36.2a13.88,13.88,0,0,0-13.83-12.67H121.47a5.84,5.84,0,0,0-5.82,6.35l.73,8.32a5.84,5.84,0,0,0,5.08,5.29l1.64.21a4.34,4.34,0,0,1,3.79,3.93l4,45.66a6.45,6.45,0,0,0,6.42,5.89H244.53a6.45,6.45,0,0,0,6.42-5.89l4-45.66a4.34,4.34,0,0,1,3.79-3.93l1.64-.21a5.84,5.84,0,0,0,5.08-5.29l.73-8.32A5.84,5.84,0,0,0,260.36,304.65Z" style="fill: rgb(240, 240, 240); transform-origin: 190.92px 342.475px;" id="elahenl7mtjb4" class="animable"></path><path d="M389.47,142.31s1.11-7.35-4.25-12.07-4.89-7.51-3.36-7.88,2.95,4.35,5.31,5.64c0,0,.07-6.71-2.32-9.19s-3.65-8.85-1.38-9,2.52,3.79,3,6.55,3,6.65,3,6.65.49-6,2-8.48-2.58-8.13-1-10.61,4.41,2.24,4.18,7.55-3.77,11-2.95,16.49c0,0,1.56-3.88,3-4.24s2.82-2.92,3.76-3.88,2.12,2.35,0,5.41-7.54,11.27-6.72,17.89Z" style="fill: rgb(230, 230, 230); transform-origin: 390.242px 123.19px;" id="elkpzcbz13l5g" class="animable"></path><path d="M386.26,139l-1.75,11a5.6,5.6,0,0,0,5.53,6.49h1.87a5.61,5.61,0,0,0,5.54-6.49l-1.76-11Z" style="fill: rgb(230, 230, 230); transform-origin: 390.979px 147.745px;" id="el0eoa7z04jqj4" class="animable"></path><rect x="288.7" y="152.4" width="124.12" height="6.38" style="fill: rgb(224, 224, 224); transform-origin: 350.76px 155.59px;" id="el05aen6ycfyla" class="animable"></rect><rect x="294.41" y="128.89" width="5.47" height="23.51" style="fill: rgb(235, 235, 235); transform-origin: 297.145px 140.645px;" id="eluwu1fi3jct" class="animable"></rect><rect x="320.85" y="128.89" width="5.47" height="23.51" style="fill: rgb(235, 235, 235); transform-origin: 323.585px 140.645px;" id="elkntpiyvilq" class="animable"></rect><g id="elztxqa4e3978"><rect x="352.91" y="128.6" width="5.47" height="23.51" style="fill: rgb(235, 235, 235); transform-origin: 355.645px 140.355px; transform: rotate(-9.78deg);" class="animable" id="elor9s1hd926j"></rect></g><rect x="301.19" y="131.99" width="5.47" height="20.41" style="fill: rgb(235, 235, 235); transform-origin: 303.925px 142.195px;" id="el6czydurawtn" class="animable"></rect><rect x="313.76" y="131.99" width="5.47" height="20.41" style="fill: rgb(235, 235, 235); transform-origin: 316.495px 142.195px;" id="elha1bkwtts1" class="animable"></rect><rect x="345.48" y="131.99" width="5.47" height="20.41" style="fill: rgb(235, 235, 235); transform-origin: 348.215px 142.195px;" id="eln3dsg2zfbch" class="animable"></rect><g id="el4w9v9fgudho"><rect x="330.32" y="131.64" width="5.47" height="20.41" style="fill: rgb(235, 235, 235); transform-origin: 333.055px 141.845px; transform: rotate(-12.53deg);" class="animable" id="elflvcv2ewoa"></rect></g><rect x="308.65" y="127.73" width="2.73" height="24.67" style="fill: rgb(235, 235, 235); transform-origin: 310.015px 140.065px;" id="elb2t1i4ivnpo" class="animable"></rect><rect x="341.18" y="127.73" width="2.73" height="24.67" style="fill: rgb(235, 235, 235); transform-origin: 342.545px 140.065px;" id="el8oe4ao1mfyp" class="animable"></rect><g id="eluxeff5z5s"><rect x="288.7" y="200.01" width="124.12" height="6.38" style="fill: rgb(224, 224, 224); transform-origin: 350.76px 203.2px; transform: rotate(180deg);" class="animable" id="elznwnr1p4hkd"></rect></g><g id="el9xte5mi8mbm"><rect x="401.64" y="176.5" width="5.47" height="23.51" style="fill: rgb(235, 235, 235); transform-origin: 404.375px 188.255px; transform: rotate(180deg);" class="animable" id="elwlei359j10n"></rect></g><g id="elntz7yzwssso"><rect x="375.2" y="176.5" width="5.47" height="23.51" style="fill: rgb(235, 235, 235); transform-origin: 377.935px 188.255px; transform: rotate(180deg);" class="animable" id="el6tgimko2z2q"></rect></g><g id="elovgie3mxkx"><rect x="343.15" y="176.21" width="5.47" height="23.51" style="fill: rgb(235, 235, 235); transform-origin: 345.885px 187.965px; transform: rotate(-170.22deg);" class="animable" id="els21yu6c82xo"></rect></g><g id="elu9j0yf9z73"><rect x="394.87" y="179.6" width="5.47" height="20.41" style="fill: rgb(235, 235, 235); transform-origin: 397.605px 189.805px; transform: rotate(180deg);" class="animable" id="elrezzzr9okz"></rect></g><g id="elwixyauhdpm"><rect x="382.3" y="179.6" width="5.47" height="20.41" style="fill: rgb(235, 235, 235); transform-origin: 385.035px 189.805px; transform: rotate(180deg);" class="animable" id="el931z4657pzm"></rect></g><g id="eldpo22mk5v4"><rect x="350.57" y="179.6" width="5.47" height="20.41" style="fill: rgb(235, 235, 235); transform-origin: 353.305px 189.805px; transform: rotate(180deg);" class="animable" id="elh4385hloqyw"></rect></g><g id="elxmncbl63sn"><rect x="365.74" y="179.25" width="5.47" height="20.41" style="fill: rgb(235, 235, 235); transform-origin: 368.475px 189.455px; transform: rotate(-167.47deg);" class="animable" id="el0webt19ls2gb"></rect></g><g id="elb8l2y12zfd"><rect x="390.14" y="175.34" width="2.73" height="24.67" style="fill: rgb(235, 235, 235); transform-origin: 391.505px 187.675px; transform: rotate(180deg);" class="animable" id="eldzryemzi9c8"></rect></g><g id="el3zntqplm0lo"><rect x="357.61" y="175.34" width="2.73" height="24.67" style="fill: rgb(235, 235, 235); transform-origin: 358.975px 187.675px; transform: rotate(180deg);" class="animable" id="elk47rl8xqzv"></rect></g><g id="elche0akl9sua"><rect x="300.61" y="181.4" width="26.64" height="18.39" style="fill: rgb(235, 235, 235); transform-origin: 313.93px 190.595px; transform: rotate(180deg);" class="animable" id="elqetnwxgj2a"></rect></g><rect x="95.53" y="115.92" width="112.62" height="124.62" style="fill: rgb(233, 233, 233); transform-origin: 151.84px 178.23px;" id="elpjgiscv4wl8" class="animable"></rect><rect x="100.49" y="120.86" width="103" height="115" style="fill: rgb(245, 245, 245); transform-origin: 151.99px 178.36px;" id="ellci58mz92ed" class="animable"></rect><polygon points="129.6 120.86 100.49 229.88 100.49 170.86 113.81 120.86 129.6 120.86" style="fill: rgb(255, 255, 255); transform-origin: 115.045px 175.37px;" id="eluti4dy7ruvm" class="animable"></polygon><polygon points="142.61 120.86 111.91 235.86 106.12 235.86 136.82 120.86 142.61 120.86" style="fill: rgb(255, 255, 255); transform-origin: 124.365px 178.36px;" id="elnnc1ecdnm3" class="animable"></polygon><polygon points="203.49 152.22 203.49 211.25 196.97 235.86 181.18 235.86 203.49 152.22" style="fill: rgb(255, 255, 255); transform-origin: 192.335px 194.04px;" id="el21iik0m82k4" class="animable"></polygon><rect x="149.84" y="115.92" width="4" height="124.62" style="fill: rgb(233, 233, 233); transform-origin: 151.84px 178.23px;" id="elv5mt7x2kmfp" class="animable"></rect><rect x="97.49" y="141.21" width="108.5" height="4" style="fill: rgb(233, 233, 233); transform-origin: 151.74px 143.21px;" id="eli4haex5sfm" class="animable"></rect><path d="M99.22,247.64a2.52,2.52,0,1,1-2.51-2.51A2.51,2.51,0,0,1,99.22,247.64Z" style="fill: rgb(224, 224, 224); transform-origin: 96.7px 247.65px;" id="elz6wu0gcyy2e" class="animable"></path><path d="M210.12,247.57a2.52,2.52,0,1,1-2.52-2.51A2.52,2.52,0,0,1,210.12,247.57Z" style="fill: rgb(224, 224, 224); transform-origin: 207.6px 247.58px;" id="elmasdubyxf89" class="animable"></path></g><g id="freepik--Shadow--inject-4" class="animable" style="transform-origin: 250px 416.24px;"><ellipse id="freepik--path--inject-4" cx="250" cy="416.24" rx="193.89" ry="11.32" style="fill: rgb(245, 245, 245); transform-origin: 250px 416.24px;" class="animable"></ellipse></g><g id="freepik--coins-3--inject-4" class="animable" style="transform-origin: 136.27px 375.925px;"><rect x="124.79" y="405.57" width="61.19" height="9.72" rx="1.35" style="fill: #00FF88; transform-origin: 155.385px 410.43px;" id="elevfk9lsgqbg" class="animable"></rect><g id="elsyk6dwc78xi"><path d="M186,406.92v7a1.35,1.35,0,0,1-1.36,1.35H126.15a1.34,1.34,0,0,1-1.35-1.35v-7a1.34,1.34,0,0,1,1.35-1.35h58.48A1.35,1.35,0,0,1,186,406.92Z" style="fill: rgb(255, 255, 255); isolation: isolate; opacity: 0.5; transform-origin: 155.4px 410.42px;" class="animable" id="el1whtrky7ymc"></path></g><g id="elte3mchzqpk"><path d="M177.9,414.68h0a.5.5,0,0,1-.5-.49v-7.52a.5.5,0,0,1,.5-.49h0a.49.49,0,0,1,.49.49v7.52A.49.49,0,0,1,177.9,414.68Z" style="opacity: 0.2; transform-origin: 177.895px 410.43px;" class="animable" id="elhigvxl8q8sr"></path></g><g id="ellr3jkyje9u8"><path d="M170.91,414.68h0a.5.5,0,0,1-.5-.49v-7.52a.5.5,0,0,1,.5-.49h0a.49.49,0,0,1,.49.49v7.52A.49.49,0,0,1,170.91,414.68Z" style="opacity: 0.2; transform-origin: 170.905px 410.43px;" class="animable" id="ela4smvjrvexh"></path></g><g id="el914a1lpes6v"><path d="M163.16,414.68h0a.49.49,0,0,1-.49-.49v-7.52a.49.49,0,0,1,.49-.49h0a.5.5,0,0,1,.5.49v7.52A.5.5,0,0,1,163.16,414.68Z" style="opacity: 0.2; transform-origin: 163.165px 410.43px;" class="animable" id="elk9y2b81ta8i"></path></g><g id="elbldztdg51x"><path d="M183.63,414.68h0a.49.49,0,0,1-.49-.49v-7.52a.49.49,0,0,1,.49-.49h0a.49.49,0,0,1,.5.49v7.52A.49.49,0,0,1,183.63,414.68Z" style="opacity: 0.2; transform-origin: 183.635px 410.43px;" class="animable" id="elsvc0n23kiks"></path></g><g id="eltf9nwygnk9j"><path d="M132.88,406.18h0a.49.49,0,0,1,.49.49v7.52a.49.49,0,0,1-.49.49h0a.49.49,0,0,1-.5-.49v-7.52A.49.49,0,0,1,132.88,406.18Z" style="opacity: 0.2; transform-origin: 132.875px 410.43px;" class="animable" id="elj91tf27ncb"></path></g><g id="ela5hvtdiiw2n"><path d="M139.86,406.18h0a.49.49,0,0,1,.5.49v7.52a.49.49,0,0,1-.5.49h0a.49.49,0,0,1-.49-.49v-7.52A.49.49,0,0,1,139.86,406.18Z" style="opacity: 0.2; transform-origin: 139.865px 410.43px;" class="animable" id="el4zvu7zoe27p"></path></g><g id="elm4u25r3578"><path d="M147.61,406.18h0a.5.5,0,0,1,.5.49v7.52a.5.5,0,0,1-.5.49h0a.49.49,0,0,1-.49-.49v-7.52A.49.49,0,0,1,147.61,406.18Z" style="opacity: 0.2; transform-origin: 147.615px 410.43px;" class="animable" id="el57603kglpy7"></path></g><g id="elck8djtqi4p"><path d="M127.14,406.18h0a.49.49,0,0,1,.49.49v7.52a.49.49,0,0,1-.49.49h0a.5.5,0,0,1-.5-.49v-7.52A.5.5,0,0,1,127.14,406.18Z" style="opacity: 0.2; transform-origin: 127.135px 410.43px;" class="animable" id="eldhaiu1xr8gt"></path></g><g id="elo9ej5sbyq2"><path d="M155.39,414.68h0a.49.49,0,0,1-.5-.49v-7.52a.49.49,0,0,1,.5-.49h0a.49.49,0,0,1,.49.49v7.52A.49.49,0,0,1,155.39,414.68Z" style="opacity: 0.2; transform-origin: 155.385px 410.43px;" class="animable" id="elyir2odo1lzl"></path></g><rect x="126.55" y="395.71" width="61.19" height="9.72" rx="1.35" style="fill: #00FF88; transform-origin: 157.145px 400.57px;" id="elyijso5kr4m" class="animable"></rect><g id="elocm6kdmcxdc"><rect x="126.56" y="395.71" width="61.18" height="9.72" rx="1.35" style="fill: rgb(255, 255, 255); isolation: isolate; opacity: 0.5; transform-origin: 157.15px 400.57px;" class="animable" id="eljoyrcfhmej8"></rect></g><g id="el0zn26605qp7q"><path d="M179.66,404.82h0a.5.5,0,0,1-.5-.49v-7.52a.5.5,0,0,1,.5-.49h0a.49.49,0,0,1,.49.49v7.52A.49.49,0,0,1,179.66,404.82Z" style="opacity: 0.2; transform-origin: 179.655px 400.57px;" class="animable" id="eldl394y9xvvc"></path></g><g id="ele85ezin1sk7"><path d="M172.67,404.82h0a.5.5,0,0,1-.5-.49v-7.52a.5.5,0,0,1,.5-.49h0a.49.49,0,0,1,.49.49v7.52A.49.49,0,0,1,172.67,404.82Z" style="opacity: 0.2; transform-origin: 172.665px 400.57px;" class="animable" id="ellsw9eccs0cg"></path></g><g id="elym9h0hyxa4h"><path d="M164.92,404.82h0a.49.49,0,0,1-.49-.49v-7.52a.49.49,0,0,1,.49-.49h0a.5.5,0,0,1,.5.49v7.52A.5.5,0,0,1,164.92,404.82Z" style="opacity: 0.2; transform-origin: 164.925px 400.57px;" class="animable" id="el4di6eorgekj"></path></g><g id="elyn1cb4el1dc"><path d="M185.39,404.82h0a.49.49,0,0,1-.49-.49v-7.52a.49.49,0,0,1,.49-.49h0a.49.49,0,0,1,.5.49v7.52A.49.49,0,0,1,185.39,404.82Z" style="opacity: 0.2; transform-origin: 185.395px 400.57px;" class="animable" id="elaf9mwf29j9b"></path></g><g id="el3ddhu2rauax"><path d="M134.64,396.32h0a.49.49,0,0,1,.49.49v7.52a.49.49,0,0,1-.49.49h0a.49.49,0,0,1-.5-.49v-7.52A.49.49,0,0,1,134.64,396.32Z" style="opacity: 0.2; transform-origin: 134.635px 400.57px;" class="animable" id="elu92ff7jvuq8"></path></g><g id="elwrodz3bpeto"><path d="M141.62,396.32h0a.49.49,0,0,1,.5.49v7.52a.49.49,0,0,1-.5.49h0a.49.49,0,0,1-.49-.49v-7.52A.49.49,0,0,1,141.62,396.32Z" style="opacity: 0.2; transform-origin: 141.625px 400.57px;" class="animable" id="elreh1fik4b6"></path></g><g id="elyio9v08iwqn"><path d="M149.37,396.32h0a.5.5,0,0,1,.5.49v7.52a.5.5,0,0,1-.5.49h0a.49.49,0,0,1-.49-.49v-7.52A.49.49,0,0,1,149.37,396.32Z" style="opacity: 0.2; transform-origin: 149.375px 400.57px;" class="animable" id="el0x0zox9rm4f"></path></g><g id="el2f0x0nabs67"><path d="M128.9,396.32h0a.49.49,0,0,1,.49.49v7.52a.49.49,0,0,1-.49.49h0a.5.5,0,0,1-.5-.49v-7.52A.5.5,0,0,1,128.9,396.32Z" style="opacity: 0.2; transform-origin: 128.895px 400.57px;" class="animable" id="ellvhcyk4vr9"></path></g><g id="el62r9xcjoon3"><path d="M157.15,404.82h0a.49.49,0,0,1-.5-.49v-7.52a.49.49,0,0,1,.5-.49h0a.49.49,0,0,1,.49.49v7.52A.49.49,0,0,1,157.15,404.82Z" style="opacity: 0.2; transform-origin: 157.145px 400.57px;" class="animable" id="el9jy4qdud99m"></path></g><rect x="128.31" y="385.85" width="61.19" height="9.72" rx="1.35" style="fill: #00FF88; transform-origin: 158.905px 390.71px;" id="elsw3r55ozs3b" class="animable"></rect><g id="el70p85c8urbi"><rect x="128.32" y="385.85" width="61.18" height="9.72" rx="1.35" style="fill: rgb(255, 255, 255); isolation: isolate; opacity: 0.5; transform-origin: 158.91px 390.71px;" class="animable" id="elqxkqjdb2y8r"></rect></g><g id="elpy5343tqaoj"><path d="M181.42,395h0a.51.51,0,0,1-.5-.5V387a.5.5,0,0,1,.5-.49h0a.49.49,0,0,1,.49.49v7.52A.5.5,0,0,1,181.42,395Z" style="opacity: 0.2; transform-origin: 181.415px 390.755px;" class="animable" id="elcamjxlo5agg"></path></g><g id="elmkd2vx4ak8g"><path d="M174.43,395h0a.51.51,0,0,1-.5-.5V387a.5.5,0,0,1,.5-.49h0a.49.49,0,0,1,.49.49v7.52A.5.5,0,0,1,174.43,395Z" style="opacity: 0.2; transform-origin: 174.425px 390.755px;" class="animable" id="eltf3rd99le7"></path></g><g id="elnvlq1mlh4p"><path d="M166.68,395h0a.5.5,0,0,1-.49-.5V387a.49.49,0,0,1,.49-.49h0a.5.5,0,0,1,.5.49v7.52A.51.51,0,0,1,166.68,395Z" style="opacity: 0.2; transform-origin: 166.685px 390.755px;" class="animable" id="elv8r2r1l6usn"></path></g><g id="ele4jku71c1vo"><path d="M187.15,395h0a.5.5,0,0,1-.49-.5V387a.49.49,0,0,1,.49-.49h0a.49.49,0,0,1,.5.49v7.52A.5.5,0,0,1,187.15,395Z" style="opacity: 0.2; transform-origin: 187.155px 390.755px;" class="animable" id="elk1myxucuos"></path></g><g id="el144571c5kj7m"><path d="M136.4,386.46h0a.49.49,0,0,1,.49.49v7.52a.5.5,0,0,1-.49.5h0a.5.5,0,0,1-.5-.5V387A.49.49,0,0,1,136.4,386.46Z" style="opacity: 0.2; transform-origin: 136.394px 390.715px;" class="animable" id="el62c8um9vjr6"></path></g><g id="elf8boihw21t9"><path d="M143.38,386.46h0a.49.49,0,0,1,.5.49v7.52a.5.5,0,0,1-.5.5h0a.5.5,0,0,1-.49-.5V387A.49.49,0,0,1,143.38,386.46Z" style="opacity: 0.2; transform-origin: 143.384px 390.715px;" class="animable" id="elwy275te929o"></path></g><g id="elml2sgglpo3"><path d="M151.13,386.46h0a.5.5,0,0,1,.5.49v7.52a.51.51,0,0,1-.5.5h0a.5.5,0,0,1-.49-.5V387A.49.49,0,0,1,151.13,386.46Z" style="opacity: 0.2; transform-origin: 151.134px 390.715px;" class="animable" id="elt4su2n0o3e8"></path></g><g id="el1r2hc8ttjqx"><path d="M130.66,386.46h0a.49.49,0,0,1,.49.49v7.52a.5.5,0,0,1-.49.5h0a.51.51,0,0,1-.5-.5V387A.5.5,0,0,1,130.66,386.46Z" style="opacity: 0.2; transform-origin: 130.654px 390.715px;" class="animable" id="el00vaas3ee8co"></path></g><g id="el0xh6v970dh2e"><path d="M158.91,395h0a.5.5,0,0,1-.5-.5V387a.49.49,0,0,1,.5-.49h0a.49.49,0,0,1,.49.49v7.52A.5.5,0,0,1,158.91,395Z" style="opacity: 0.2; transform-origin: 158.905px 390.755px;" class="animable" id="ellg0wyjyxihj"></path></g><rect x="121.07" y="375.99" width="61.19" height="9.72" rx="1.35" style="fill: #00FF88; transform-origin: 151.665px 380.85px;" id="elakeghtuk3ma" class="animable"></rect><g id="el7wz91yfkty3"><rect x="121.07" y="375.99" width="61.19" height="9.73" rx="1.35" style="fill: rgb(255, 255, 255); isolation: isolate; opacity: 0.5; transform-origin: 151.665px 380.855px;" class="animable" id="el6ztxubjwjlj"></rect></g><g id="el4btgne7qj2x"><path d="M174.17,385.11h0a.49.49,0,0,1-.49-.5V377.1a.49.49,0,0,1,.49-.5h0a.5.5,0,0,1,.5.5v7.51A.5.5,0,0,1,174.17,385.11Z" style="opacity: 0.2; transform-origin: 174.175px 380.855px;" class="animable" id="elwzehwv1c2q"></path></g><g id="elbumcoyv2g2c"><path d="M167.18,385.11h0a.49.49,0,0,1-.49-.5V377.1a.49.49,0,0,1,.49-.5h0a.5.5,0,0,1,.5.5v7.51A.5.5,0,0,1,167.18,385.11Z" style="opacity: 0.2; transform-origin: 167.185px 380.855px;" class="animable" id="elansbwlmmwej"></path></g><g id="elrqbrlf2i8y"><path d="M159.44,385.11h0a.5.5,0,0,1-.5-.5V377.1a.5.5,0,0,1,.5-.5h0a.49.49,0,0,1,.49.5v7.51A.49.49,0,0,1,159.44,385.11Z" style="opacity: 0.2; transform-origin: 159.435px 380.855px;" class="animable" id="el469oee5m2cr"></path></g><g id="elh9tb3v9tdz5"><path d="M179.91,385.11h0a.5.5,0,0,1-.5-.5V377.1a.5.5,0,0,1,.5-.5h0a.49.49,0,0,1,.49.5v7.51A.49.49,0,0,1,179.91,385.11Z" style="opacity: 0.2; transform-origin: 179.905px 380.855px;" class="animable" id="elyw2gytx0qgr"></path></g><g id="els1ebrcq08h"><path d="M129.15,376.6h0a.49.49,0,0,1,.49.5v7.51a.49.49,0,0,1-.49.5h0a.5.5,0,0,1-.5-.5V377.1A.5.5,0,0,1,129.15,376.6Z" style="opacity: 0.2; transform-origin: 129.145px 380.855px;" class="animable" id="elzo2862deb2r"></path></g><g id="el7hvx0a8vtw"><path d="M136.14,376.6h0a.49.49,0,0,1,.49.5v7.51a.49.49,0,0,1-.49.5h0a.5.5,0,0,1-.5-.5V377.1A.5.5,0,0,1,136.14,376.6Z" style="opacity: 0.2; transform-origin: 136.135px 380.855px;" class="animable" id="elddmnvrj8aki"></path></g><g id="elvyu3f8l5ua"><path d="M143.89,376.6h0a.49.49,0,0,1,.49.5v7.51a.49.49,0,0,1-.49.5h0a.5.5,0,0,1-.5-.5V377.1A.5.5,0,0,1,143.89,376.6Z" style="opacity: 0.2; transform-origin: 143.885px 380.855px;" class="animable" id="elftlvkq9mcwl"></path></g><g id="eln82llmadvt7"><path d="M123.41,376.6h0a.5.5,0,0,1,.5.5v7.51a.5.5,0,0,1-.5.5h0a.49.49,0,0,1-.49-.5V377.1A.49.49,0,0,1,123.41,376.6Z" style="opacity: 0.2; transform-origin: 123.415px 380.855px;" class="animable" id="eljp32tgiys59"></path></g><g id="elyv6eo1sqe1"><path d="M151.66,385.11h0a.49.49,0,0,1-.49-.5V377.1a.49.49,0,0,1,.49-.5h0a.49.49,0,0,1,.49.5v7.51A.49.49,0,0,1,151.66,385.11Z" style="opacity: 0.2; transform-origin: 151.66px 380.855px;" class="animable" id="el0gs9j9irf3b"></path></g><rect x="123.83" y="366.14" width="61.19" height="9.72" rx="1.35" style="fill: #00FF88; transform-origin: 154.425px 371px;" id="elwsmqwrdg8is" class="animable"></rect><g id="elauzyedsk24o"><path d="M185,367.49v7a1.36,1.36,0,0,1-1.34,1.35h-58.5a1.35,1.35,0,0,1-1.34-1.35v-7a1.34,1.34,0,0,1,1.34-1.35h58.5A1.35,1.35,0,0,1,185,367.49Z" style="fill: rgb(255, 255, 255); isolation: isolate; opacity: 0.5; transform-origin: 154.41px 370.99px;" class="animable" id="elx3v1ggg5npd"></path></g><g id="el4camenbxone"><path d="M176.93,375.25h0a.49.49,0,0,1-.49-.5v-7.51a.5.5,0,0,1,.49-.5h0a.51.51,0,0,1,.5.5v7.51A.5.5,0,0,1,176.93,375.25Z" style="opacity: 0.2; transform-origin: 176.935px 370.995px;" class="animable" id="elsiwd9w8x0cl"></path></g><g id="el4sakj9zlac"><path d="M169.94,375.25h0a.49.49,0,0,1-.49-.5v-7.51a.5.5,0,0,1,.49-.5h0a.5.5,0,0,1,.5.5v7.51A.5.5,0,0,1,169.94,375.25Z" style="opacity: 0.2; transform-origin: 169.945px 370.995px;" class="animable" id="elsq8cr2zn8o"></path></g><g id="el8fvc6d44o54"><path d="M162.2,375.25h0a.5.5,0,0,1-.5-.5v-7.51a.5.5,0,0,1,.5-.5h0a.5.5,0,0,1,.49.5v7.51A.49.49,0,0,1,162.2,375.25Z" style="opacity: 0.2; transform-origin: 162.195px 370.995px;" class="animable" id="elkxxudbnnxz"></path></g><g id="elph7t203q94p"><path d="M182.67,375.25h0a.5.5,0,0,1-.5-.5v-7.51a.51.51,0,0,1,.5-.5h0a.5.5,0,0,1,.49.5v7.51A.49.49,0,0,1,182.67,375.25Z" style="opacity: 0.2; transform-origin: 182.665px 370.995px;" class="animable" id="elnu35ohfqtja"></path></g><g id="elil3fuglh0f"><path d="M131.91,366.74h0a.5.5,0,0,1,.49.5v7.51a.49.49,0,0,1-.49.5h0a.5.5,0,0,1-.5-.5v-7.51A.51.51,0,0,1,131.91,366.74Z" style="opacity: 0.2; transform-origin: 131.905px 370.995px;" class="animable" id="elxkczuz9czxp"></path></g><g id="elm0em0myv3e7"><path d="M138.9,366.74h0a.5.5,0,0,1,.49.5v7.51a.49.49,0,0,1-.49.5h0a.5.5,0,0,1-.5-.5v-7.51A.51.51,0,0,1,138.9,366.74Z" style="opacity: 0.2; transform-origin: 138.895px 370.995px;" class="animable" id="elp7dgq4jwrul"></path></g><g id="elz32j1iitup"><path d="M146.65,366.74h0a.5.5,0,0,1,.49.5v7.51a.49.49,0,0,1-.49.5h0a.5.5,0,0,1-.5-.5v-7.51A.5.5,0,0,1,146.65,366.74Z" style="opacity: 0.2; transform-origin: 146.645px 370.995px;" class="animable" id="eluztibrjlqeg"></path></g><g id="elrigu4hmtzip"><path d="M126.17,366.74h0a.5.5,0,0,1,.5.5v7.51a.5.5,0,0,1-.5.5h0a.49.49,0,0,1-.49-.5v-7.51A.5.5,0,0,1,126.17,366.74Z" style="opacity: 0.2; transform-origin: 126.175px 370.995px;" class="animable" id="el8vl8ezmjt87"></path></g><g id="ellxos1aa8hw"><path d="M154.42,375.25h0a.49.49,0,0,1-.49-.5v-7.51a.5.5,0,0,1,.49-.5h0a.51.51,0,0,1,.5.5v7.51A.5.5,0,0,1,154.42,375.25Z" style="opacity: 0.2; transform-origin: 154.425px 370.995px;" class="animable" id="el1ism2smakk1"></path></g><g id="el44995yiusrw"><path d="M123.83,374.51v-7a1.34,1.34,0,0,1,1.34-1.35h26l4.56,9.72H125.17A1.35,1.35,0,0,1,123.83,374.51Z" style="opacity: 0.2; transform-origin: 139.78px 371.02px;" class="animable" id="el9lgpnwauzsk"></path></g><g id="elpq5o8873w8"><path d="M160.32,385.72h-37.9a1.35,1.35,0,0,1-1.35-1.35v-7a1.35,1.35,0,0,1,1.35-1.35h33.34Z" style="opacity: 0.2; transform-origin: 140.695px 380.87px;" class="animable" id="elmc0ufcx73nh"></path></g><g id="elysyr617efui"><path d="M129.67,385.85h30.71l4.55,9.72H129.67a1.34,1.34,0,0,1-1.35-1.35v-7A1.35,1.35,0,0,1,129.67,385.85Z" style="opacity: 0.2; transform-origin: 146.625px 390.71px;" class="animable" id="elmn5ffbx12r"></path></g><g id="elsduwl3jjqdr"><path d="M127.9,395.71H165l4.57,9.72H127.9a1.34,1.34,0,0,1-1.34-1.35v-7A1.34,1.34,0,0,1,127.9,395.71Z" style="opacity: 0.2; transform-origin: 148.065px 400.57px;" class="animable" id="el7eyxnaoyrfy"></path></g><g id="elryjtp4ecagb"><path d="M174.17,415.29h-48a1.34,1.34,0,0,1-1.35-1.35v-7a1.34,1.34,0,0,1,1.35-1.35h43.46Z" style="opacity: 0.2; transform-origin: 149.495px 410.44px;" class="animable" id="ellvitjzzvolr"></path></g><rect x="84.77" y="405.57" width="61.19" height="9.72" rx="1.35" style="fill: #00FF88; transform-origin: 115.365px 410.43px;" id="el91ogilu7zka" class="animable"></rect><g id="elldj1v724wom"><rect x="84.77" y="405.57" width="61.19" height="9.72" rx="1.35" style="fill: rgb(255, 255, 255); isolation: isolate; opacity: 0.5; transform-origin: 115.365px 410.43px;" class="animable" id="ellk6771bcxab"></rect></g><g id="el4boa5lvxwhi"><path d="M137.87,414.68h0a.49.49,0,0,1-.49-.49v-7.52a.49.49,0,0,1,.49-.49h0a.5.5,0,0,1,.5.49v7.52A.5.5,0,0,1,137.87,414.68Z" style="opacity: 0.2; transform-origin: 137.875px 410.43px;" class="animable" id="el8pqmngfi6h4"></path></g><g id="el4zuo1aft902"><path d="M130.88,414.68h0a.49.49,0,0,1-.49-.49v-7.52a.49.49,0,0,1,.49-.49h0a.49.49,0,0,1,.5.49v7.52A.49.49,0,0,1,130.88,414.68Z" style="opacity: 0.2; transform-origin: 130.885px 410.43px;" class="animable" id="el5feouiamy3f"></path></g><g id="elkmwjglqdjco"><path d="M123.14,414.68h0a.49.49,0,0,1-.5-.49v-7.52a.49.49,0,0,1,.5-.49h0a.49.49,0,0,1,.49.49v7.52A.49.49,0,0,1,123.14,414.68Z" style="opacity: 0.2; transform-origin: 123.135px 410.43px;" class="animable" id="el7nc3apeagvb"></path></g><g id="elf7cxnvsh9s"><path d="M143.61,414.68h0a.5.5,0,0,1-.5-.49v-7.52a.5.5,0,0,1,.5-.49h0a.49.49,0,0,1,.49.49v7.52A.49.49,0,0,1,143.61,414.68Z" style="opacity: 0.2; transform-origin: 143.605px 410.43px;" class="animable" id="eld8j3f3v350b"></path></g><g id="elsd2fke5gf6"><path d="M92.85,406.18h0a.49.49,0,0,1,.49.49v7.52a.49.49,0,0,1-.49.49h0a.49.49,0,0,1-.49-.49v-7.52A.49.49,0,0,1,92.85,406.18Z" style="opacity: 0.2; transform-origin: 92.85px 410.43px;" class="animable" id="elicxnagb5scb"></path></g><g id="ellx5ekl3evjc"><path d="M99.84,406.18h0a.49.49,0,0,1,.49.49v7.52a.49.49,0,0,1-.49.49h0a.5.5,0,0,1-.5-.49v-7.52A.5.5,0,0,1,99.84,406.18Z" style="opacity: 0.2; transform-origin: 99.835px 410.43px;" class="animable" id="el9bxprsqxsp7"></path></g><g id="elqs2sejkdkq"><path d="M107.59,406.18h0a.49.49,0,0,1,.49.49v7.52a.49.49,0,0,1-.49.49h0a.49.49,0,0,1-.5-.49v-7.52A.49.49,0,0,1,107.59,406.18Z" style="opacity: 0.2; transform-origin: 107.585px 410.43px;" class="animable" id="elvpoa8sfzug"></path></g><g id="el8fdsor6vvto"><path d="M87.11,406.18h0a.49.49,0,0,1,.5.49v7.52a.49.49,0,0,1-.5.49h0a.49.49,0,0,1-.49-.49v-7.52A.49.49,0,0,1,87.11,406.18Z" style="opacity: 0.2; transform-origin: 87.115px 410.43px;" class="animable" id="elvsehnnka398"></path></g><g id="elwisonwoovkd"><path d="M115.36,414.68h0a.49.49,0,0,1-.49-.49v-7.52a.49.49,0,0,1,.49-.49h0a.5.5,0,0,1,.5.49v7.52A.5.5,0,0,1,115.36,414.68Z" style="opacity: 0.2; transform-origin: 115.365px 410.43px;" class="animable" id="elz3hs2w2ftu"></path></g><rect x="86.53" y="395.71" width="61.19" height="9.72" rx="1.35" style="fill: #00FF88; transform-origin: 117.125px 400.57px;" id="elm1x9juzauw" class="animable"></rect><g id="elaii0pbrw1tk"><rect x="86.53" y="395.71" width="61.19" height="9.72" rx="1.35" style="fill: rgb(255, 255, 255); isolation: isolate; opacity: 0.5; transform-origin: 117.125px 400.57px;" class="animable" id="el1ojtbk4gpwa"></rect></g><g id="elgmdw7awgfil"><path d="M139.63,404.82h0a.49.49,0,0,1-.49-.49v-7.52a.49.49,0,0,1,.49-.49h0a.5.5,0,0,1,.5.49v7.52A.5.5,0,0,1,139.63,404.82Z" style="opacity: 0.2; transform-origin: 139.635px 400.57px;" class="animable" id="elx7pyn5osr"></path></g><g id="el6xikc20qedl"><path d="M132.64,404.82h0a.49.49,0,0,1-.49-.49v-7.52a.49.49,0,0,1,.49-.49h0a.49.49,0,0,1,.5.49v7.52A.49.49,0,0,1,132.64,404.82Z" style="opacity: 0.2; transform-origin: 132.645px 400.57px;" class="animable" id="eldfude430zsv"></path></g><g id="elabr4taw5cep"><path d="M124.9,404.82h0a.49.49,0,0,1-.5-.49v-7.52a.49.49,0,0,1,.5-.49h0a.49.49,0,0,1,.49.49v7.52A.49.49,0,0,1,124.9,404.82Z" style="opacity: 0.2; transform-origin: 124.895px 400.57px;" class="animable" id="eltaze6d4mxbq"></path></g><g id="ella33sp2e96i"><path d="M145.37,404.82h0a.5.5,0,0,1-.5-.49v-7.52a.5.5,0,0,1,.5-.49h0a.49.49,0,0,1,.49.49v7.52A.49.49,0,0,1,145.37,404.82Z" style="opacity: 0.2; transform-origin: 145.365px 400.57px;" class="animable" id="elalhtlg6bfll"></path></g><g id="elyiarjcrl95h"><path d="M94.61,396.32h0a.49.49,0,0,1,.49.49v7.52a.49.49,0,0,1-.49.49h0a.49.49,0,0,1-.49-.49v-7.52A.49.49,0,0,1,94.61,396.32Z" style="opacity: 0.2; transform-origin: 94.61px 400.57px;" class="animable" id="el5y4uy1shsjl"></path></g><g id="el3q56z5hu72y"><path d="M101.6,396.32h0a.49.49,0,0,1,.49.49v7.52a.49.49,0,0,1-.49.49h0a.5.5,0,0,1-.5-.49v-7.52A.5.5,0,0,1,101.6,396.32Z" style="opacity: 0.2; transform-origin: 101.595px 400.57px;" class="animable" id="elmeaodvdff8"></path></g><g id="elxps6mdk5dyl"><path d="M109.35,396.32h0a.49.49,0,0,1,.49.49v7.52a.49.49,0,0,1-.49.49h0a.49.49,0,0,1-.5-.49v-7.52A.49.49,0,0,1,109.35,396.32Z" style="opacity: 0.2; transform-origin: 109.345px 400.57px;" class="animable" id="ell3mp78dp"></path></g><g id="eljfixezltoz"><path d="M88.87,396.32h0a.49.49,0,0,1,.5.49v7.52a.49.49,0,0,1-.5.49h0a.49.49,0,0,1-.49-.49v-7.52A.49.49,0,0,1,88.87,396.32Z" style="opacity: 0.2; transform-origin: 88.875px 400.57px;" class="animable" id="elry8s0mh0e2"></path></g><g id="el50lx980mk36"><path d="M117.12,404.82h0a.49.49,0,0,1-.49-.49v-7.52a.49.49,0,0,1,.49-.49h0a.5.5,0,0,1,.5.49v7.52A.5.5,0,0,1,117.12,404.82Z" style="opacity: 0.2; transform-origin: 117.125px 400.57px;" class="animable" id="el4we5q7t1rda"></path></g><rect x="83.28" y="385.85" width="61.19" height="9.72" rx="1.35" style="fill: #00FF88; transform-origin: 113.875px 390.71px;" id="elzulmry2z0mj" class="animable"></rect><g id="elyk3s6bqzzhn"><rect x="83.28" y="385.85" width="61.19" height="9.72" rx="1.35" style="fill: rgb(255, 255, 255); isolation: isolate; opacity: 0.5; transform-origin: 113.875px 390.71px;" class="animable" id="elvxp65iw4zve"></rect></g><g id="el43klj09cfq1"><path d="M136.39,395h0a.51.51,0,0,1-.5-.5V387a.5.5,0,0,1,.5-.49h0a.49.49,0,0,1,.49.49v7.52A.5.5,0,0,1,136.39,395Z" style="opacity: 0.2; transform-origin: 136.385px 390.755px;" class="animable" id="elfdujb6idn6u"></path></g><g id="elbl870pbr94h"><path d="M129.4,395h0a.5.5,0,0,1-.49-.5V387a.49.49,0,0,1,.49-.49h0a.49.49,0,0,1,.49.49v7.52A.5.5,0,0,1,129.4,395Z" style="opacity: 0.2; transform-origin: 129.4px 390.755px;" class="animable" id="eluh51see082d"></path></g><g id="elhk6z4w7nzfj"><path d="M121.65,395h0a.5.5,0,0,1-.49-.5V387a.49.49,0,0,1,.49-.49h0a.5.5,0,0,1,.5.49v7.52A.51.51,0,0,1,121.65,395Z" style="opacity: 0.2; transform-origin: 121.655px 390.755px;" class="animable" id="el0qs5vwtd03tr"></path></g><g id="elkwg882h0mjj"><path d="M142.13,395h0a.5.5,0,0,1-.5-.5V387a.49.49,0,0,1,.5-.49h0a.49.49,0,0,1,.49.49v7.52A.5.5,0,0,1,142.13,395Z" style="opacity: 0.2; transform-origin: 142.125px 390.755px;" class="animable" id="eln6qfg6510tn"></path></g><g id="eluj1mcdndkbr"><path d="M91.37,386.46h0a.49.49,0,0,1,.49.49v7.52a.5.5,0,0,1-.49.5h0a.5.5,0,0,1-.5-.5V387A.49.49,0,0,1,91.37,386.46Z" style="opacity: 0.2; transform-origin: 91.3637px 390.715px;" class="animable" id="el36jlkqa4r02"></path></g><g id="elhg5l8bn8ra6"><path d="M98.36,386.46h0a.49.49,0,0,1,.49.49v7.52a.5.5,0,0,1-.49.5h0a.5.5,0,0,1-.5-.5V387A.49.49,0,0,1,98.36,386.46Z" style="opacity: 0.2; transform-origin: 98.3537px 390.715px;" class="animable" id="el9qscjrhhh1"></path></g><g id="ele1rjg2mpdr"><path d="M106.1,386.46h0a.5.5,0,0,1,.5.49v7.52a.51.51,0,0,1-.5.5h0a.5.5,0,0,1-.49-.5V387A.49.49,0,0,1,106.1,386.46Z" style="opacity: 0.2; transform-origin: 106.104px 390.715px;" class="animable" id="elkhtonfmyh6"></path></g><g id="el8eqtyjv7k69"><path d="M85.63,386.46h0a.49.49,0,0,1,.49.49v7.52a.5.5,0,0,1-.49.5h0a.5.5,0,0,1-.49-.5V387A.49.49,0,0,1,85.63,386.46Z" style="opacity: 0.2; transform-origin: 85.6287px 390.715px;" class="animable" id="elctekk6rztiv"></path></g><g id="elyt47njjrjc"><path d="M113.88,395h0a.51.51,0,0,1-.5-.5V387a.5.5,0,0,1,.5-.49h0a.49.49,0,0,1,.49.49v7.52A.5.5,0,0,1,113.88,395Z" style="opacity: 0.2; transform-origin: 113.875px 390.755px;" class="animable" id="elj03cma7qxhh"></path></g><rect x="83.04" y="375.99" width="61.19" height="9.72" rx="1.35" style="fill: #00FF88; transform-origin: 113.635px 380.85px;" id="el5ixfd2j6ams" class="animable"></rect><g id="el0os5zo6xg0fk"><rect x="83.04" y="375.99" width="61.19" height="9.72" rx="1.35" style="fill: rgb(255, 255, 255); isolation: isolate; opacity: 0.5; transform-origin: 113.635px 380.85px;" class="animable" id="eloc8davp5css"></rect></g><g id="el6qhogrkoyaf"><path d="M136.15,385.11h0a.5.5,0,0,1-.5-.5V377.1a.5.5,0,0,1,.5-.5h0a.49.49,0,0,1,.49.5v7.51A.49.49,0,0,1,136.15,385.11Z" style="opacity: 0.2; transform-origin: 136.145px 380.855px;" class="animable" id="elawf6htfxcjf"></path></g><g id="elcm4bhmluf4m"><path d="M129.16,385.11h0a.5.5,0,0,1-.5-.5V377.1a.5.5,0,0,1,.5-.5h0a.49.49,0,0,1,.49.5v7.51A.49.49,0,0,1,129.16,385.11Z" style="opacity: 0.2; transform-origin: 129.155px 380.855px;" class="animable" id="el3lgru6s09pq"></path></g><g id="el9qa6npl991i"><path d="M121.41,385.11h0a.49.49,0,0,1-.49-.5V377.1a.49.49,0,0,1,.49-.5h0a.5.5,0,0,1,.5.5v7.51A.5.5,0,0,1,121.41,385.11Z" style="opacity: 0.2; transform-origin: 121.415px 380.855px;" class="animable" id="elmt4o9ed9joc"></path></g><g id="ellybqqqkf7n"><path d="M141.88,385.11h0a.49.49,0,0,1-.49-.5V377.1a.49.49,0,0,1,.49-.5h0a.5.5,0,0,1,.5.5v7.51A.5.5,0,0,1,141.88,385.11Z" style="opacity: 0.2; transform-origin: 141.885px 380.855px;" class="animable" id="elruljfaarofh"></path></g><g id="elvy4nf6nxyxc"><path d="M91.13,376.6h0a.49.49,0,0,1,.49.5v7.51a.49.49,0,0,1-.49.5h0a.5.5,0,0,1-.5-.5V377.1A.5.5,0,0,1,91.13,376.6Z" style="opacity: 0.2; transform-origin: 91.125px 380.855px;" class="animable" id="elzskxodhx8zq"></path></g><g id="elcz34s5jhy4c"><path d="M98.11,376.6h0a.5.5,0,0,1,.5.5v7.51a.5.5,0,0,1-.5.5h0a.49.49,0,0,1-.49-.5V377.1A.49.49,0,0,1,98.11,376.6Z" style="opacity: 0.2; transform-origin: 98.1149px 380.855px;" class="animable" id="elov8fp1yjhj8"></path></g><g id="elbicsv0y34k"><path d="M105.86,376.6h0a.5.5,0,0,1,.5.5v7.51a.5.5,0,0,1-.5.5h0a.49.49,0,0,1-.49-.5V377.1A.49.49,0,0,1,105.86,376.6Z" style="opacity: 0.2; transform-origin: 105.865px 380.855px;" class="animable" id="elnxebb2z0b9"></path></g><g id="elwol1trrilxa"><path d="M85.39,376.6h0a.49.49,0,0,1,.49.5v7.51a.49.49,0,0,1-.49.5h0a.5.5,0,0,1-.5-.5V377.1A.5.5,0,0,1,85.39,376.6Z" style="opacity: 0.2; transform-origin: 85.3851px 380.855px;" class="animable" id="eloh4obavsvm7"></path></g><g id="eljqfy47dgnbg"><path d="M113.64,385.11h0a.5.5,0,0,1-.5-.5V377.1a.5.5,0,0,1,.5-.5h0a.49.49,0,0,1,.49.5v7.51A.49.49,0,0,1,113.64,385.11Z" style="opacity: 0.2; transform-origin: 113.635px 380.855px;" class="animable" id="ell13psjub3se"></path></g><rect x="85.8" y="366.14" width="61.19" height="9.72" rx="1.35" style="fill: #00FF88; transform-origin: 116.395px 371px;" id="elsq5xll7nbl8" class="animable"></rect><g id="elh5r9u7l6i84"><rect x="85.8" y="366.14" width="61.19" height="9.72" rx="1.35" style="fill: rgb(255, 255, 255); isolation: isolate; opacity: 0.5; transform-origin: 116.395px 371px;" class="animable" id="elc05dyzs7lw4"></rect></g><g id="elho75b46h9cv"><path d="M138.91,375.25h0a.5.5,0,0,1-.5-.5v-7.51a.51.51,0,0,1,.5-.5h0a.5.5,0,0,1,.49.5v7.51A.49.49,0,0,1,138.91,375.25Z" style="opacity: 0.2; transform-origin: 138.905px 370.995px;" class="animable" id="eleegn6j1kbv"></path></g><g id="elqpdvfh1ucu"><path d="M131.92,375.25h0a.5.5,0,0,1-.5-.5v-7.51a.51.51,0,0,1,.5-.5h0a.5.5,0,0,1,.49.5v7.51A.49.49,0,0,1,131.92,375.25Z" style="opacity: 0.2; transform-origin: 131.915px 370.995px;" class="animable" id="elawbd5ocoyqg"></path></g><g id="elai5a98fnee4"><path d="M124.17,375.25h0a.49.49,0,0,1-.49-.5v-7.51a.5.5,0,0,1,.49-.5h0a.51.51,0,0,1,.5.5v7.51A.5.5,0,0,1,124.17,375.25Z" style="opacity: 0.2; transform-origin: 124.175px 370.995px;" class="animable" id="ela0li6h6646c"></path></g><g id="el3bgf6rrr76l"><path d="M144.64,375.25h0a.49.49,0,0,1-.49-.5v-7.51a.5.5,0,0,1,.49-.5h0a.5.5,0,0,1,.5.5v7.51A.5.5,0,0,1,144.64,375.25Z" style="opacity: 0.2; transform-origin: 144.645px 370.995px;" class="animable" id="el02dd9vf7dcj7"></path></g><g id="elaalj4nstcei"><path d="M93.89,366.74h0a.5.5,0,0,1,.49.5v7.51a.49.49,0,0,1-.49.5h0a.5.5,0,0,1-.5-.5v-7.51A.5.5,0,0,1,93.89,366.74Z" style="opacity: 0.2; transform-origin: 93.8851px 370.995px;" class="animable" id="elyyjmsukvgz8"></path></g><g id="eldlykfr0379"><path d="M100.87,366.74h0a.5.5,0,0,1,.5.5v7.51a.5.5,0,0,1-.5.5h0a.49.49,0,0,1-.49-.5v-7.51A.5.5,0,0,1,100.87,366.74Z" style="opacity: 0.2; transform-origin: 100.875px 370.995px;" class="animable" id="elb32u34xjs6"></path></g><g id="elbi6ubs51uab"><path d="M108.62,366.74h0a.51.51,0,0,1,.5.5v7.51a.5.5,0,0,1-.5.5h0a.49.49,0,0,1-.49-.5v-7.51A.5.5,0,0,1,108.62,366.74Z" style="opacity: 0.2; transform-origin: 108.625px 370.995px;" class="animable" id="elvkalmd4ln0n"></path></g><g id="elfmbc83xq0io"><path d="M88.15,366.74h0a.5.5,0,0,1,.49.5v7.51a.49.49,0,0,1-.49.5h0a.5.5,0,0,1-.5-.5v-7.51A.51.51,0,0,1,88.15,366.74Z" style="opacity: 0.2; transform-origin: 88.1451px 370.995px;" class="animable" id="elhlw5cer7n8v"></path></g><g id="elfyjui0cgcy"><path d="M116.4,375.25h0a.5.5,0,0,1-.5-.5v-7.51a.5.5,0,0,1,.5-.5h0a.5.5,0,0,1,.49.5v7.51A.49.49,0,0,1,116.4,375.25Z" style="opacity: 0.2; transform-origin: 116.395px 370.995px;" class="animable" id="elkrptyzai8ub"></path></g><rect x="83.56" y="356.28" width="61.19" height="9.72" rx="1.35" style="fill: #00FF88; transform-origin: 114.155px 361.14px;" id="elq4wz3els0io" class="animable"></rect><g id="eleoqym2e8uod"><rect x="83.56" y="356.28" width="61.19" height="9.72" rx="1.35" style="fill: rgb(255, 255, 255); isolation: isolate; opacity: 0.5; transform-origin: 114.155px 361.14px;" class="animable" id="elga8o8x9rzmg"></rect></g><g id="el7fciror6m7f"><path d="M136.67,365.39h0a.49.49,0,0,1-.5-.49v-7.52a.49.49,0,0,1,.5-.49h0a.49.49,0,0,1,.49.49v7.52A.49.49,0,0,1,136.67,365.39Z" style="opacity: 0.2; transform-origin: 136.665px 361.14px;" class="animable" id="el9wud4yr92qr"></path></g><g id="elmgek7xdjb9j"><path d="M129.68,365.39h0a.49.49,0,0,1-.5-.49v-7.52a.49.49,0,0,1,.5-.49h0a.49.49,0,0,1,.49.49v7.52A.49.49,0,0,1,129.68,365.39Z" style="opacity: 0.2; transform-origin: 129.675px 361.14px;" class="animable" id="elf4bkq24dsa7"></path></g><g id="el3cwwhnvau27"><path d="M121.93,365.39h0a.5.5,0,0,1-.5-.49v-7.52a.5.5,0,0,1,.5-.49h0a.49.49,0,0,1,.49.49v7.52A.49.49,0,0,1,121.93,365.39Z" style="opacity: 0.2; transform-origin: 121.925px 361.14px;" class="animable" id="elee2rjojkpet"></path></g><g id="el901wfm1pg4p"><path d="M142.4,365.39h0a.49.49,0,0,1-.49-.49v-7.52a.49.49,0,0,1,.49-.49h0a.5.5,0,0,1,.5.49v7.52A.5.5,0,0,1,142.4,365.39Z" style="opacity: 0.2; transform-origin: 142.405px 361.14px;" class="animable" id="el6ph5llkpi1e"></path></g><g id="eln1abdrp5e0q"><path d="M91.64,356.89h0a.5.5,0,0,1,.5.49v7.52a.5.5,0,0,1-.5.49h0a.49.49,0,0,1-.49-.49v-7.52A.49.49,0,0,1,91.64,356.89Z" style="opacity: 0.2; transform-origin: 91.645px 361.14px;" class="animable" id="elybonl0x872"></path></g><g id="elb4uy2zj9yje"><path d="M98.63,356.89h0a.5.5,0,0,1,.5.49v7.52a.5.5,0,0,1-.5.49h0a.49.49,0,0,1-.49-.49v-7.52A.49.49,0,0,1,98.63,356.89Z" style="opacity: 0.2; transform-origin: 98.635px 361.14px;" class="animable" id="eloww5hwmpuph"></path></g><g id="elrl2s8om8bve"><path d="M106.38,356.89h0a.49.49,0,0,1,.49.49v7.52a.49.49,0,0,1-.49.49h0a.5.5,0,0,1-.5-.49v-7.52A.5.5,0,0,1,106.38,356.89Z" style="opacity: 0.2; transform-origin: 106.375px 361.14px;" class="animable" id="els3eealeqjsg"></path></g><g id="elv78fxjeb52q"><path d="M85.91,356.89h0a.49.49,0,0,1,.49.49v7.52a.49.49,0,0,1-.49.49h0a.49.49,0,0,1-.5-.49v-7.52A.49.49,0,0,1,85.91,356.89Z" style="opacity: 0.2; transform-origin: 85.905px 361.14px;" class="animable" id="elrulzol5dbeg"></path></g><g id="elk6qcsw1x7j"><path d="M114.15,365.39h0a.49.49,0,0,1-.49-.49v-7.52a.49.49,0,0,1,.49-.49h0a.49.49,0,0,1,.5.49v7.52A.49.49,0,0,1,114.15,365.39Z" style="opacity: 0.2; transform-origin: 114.155px 361.14px;" class="animable" id="elyjtdpn6w2bb"></path></g><rect x="86.32" y="346.42" width="61.19" height="9.72" rx="1.35" style="fill: #00FF88; transform-origin: 116.915px 351.28px;" id="elrtmo5e5dmm" class="animable"></rect><g id="elnp28ofqmu0r"><rect x="86.32" y="346.42" width="61.19" height="9.72" rx="1.35" style="fill: rgb(255, 255, 255); isolation: isolate; opacity: 0.5; transform-origin: 116.915px 351.28px;" class="animable" id="elacvmqqknwjf"></rect></g><g id="eljzq6815p3bo"><path d="M139.43,355.53h0a.49.49,0,0,1-.5-.49v-7.52a.49.49,0,0,1,.5-.49h0a.49.49,0,0,1,.49.49V355A.49.49,0,0,1,139.43,355.53Z" style="opacity: 0.2; transform-origin: 139.426px 351.28px;" class="animable" id="elx6azth9yor"></path></g><g id="el0mb0fkbakdy"><path d="M132.44,355.53h0a.49.49,0,0,1-.5-.49v-7.52a.49.49,0,0,1,.5-.49h0a.49.49,0,0,1,.49.49V355A.49.49,0,0,1,132.44,355.53Z" style="opacity: 0.2; transform-origin: 132.436px 351.28px;" class="animable" id="elkhoaiqxlpki"></path></g><g id="eltkx8wbj00fb"><path d="M124.69,355.53h0a.49.49,0,0,1-.49-.49v-7.52a.49.49,0,0,1,.49-.49h0a.49.49,0,0,1,.49.49V355A.49.49,0,0,1,124.69,355.53Z" style="opacity: 0.2; transform-origin: 124.691px 351.28px;" class="animable" id="el0qzqr74dpbf"></path></g><g id="el868poplyvxu"><path d="M145.16,355.53h0a.49.49,0,0,1-.49-.49v-7.52a.49.49,0,0,1,.49-.49h0a.5.5,0,0,1,.5.49V355A.5.5,0,0,1,145.16,355.53Z" style="opacity: 0.2; transform-origin: 145.165px 351.28px;" class="animable" id="elc4kgp2yd3v"></path></g><g id="elyyf7oo0jwl"><path d="M94.4,347h0a.49.49,0,0,1,.5.49V355a.49.49,0,0,1-.5.49h0a.49.49,0,0,1-.49-.49v-7.52A.49.49,0,0,1,94.4,347Z" style="opacity: 0.2; transform-origin: 94.405px 351.245px;" class="animable" id="elrf1upqi9l"></path></g><g id="elmp8auhyme"><path d="M101.39,347h0a.5.5,0,0,1,.5.49V355a.5.5,0,0,1-.5.49h0a.49.49,0,0,1-.49-.49v-7.52A.49.49,0,0,1,101.39,347Z" style="opacity: 0.2; transform-origin: 101.395px 351.245px;" class="animable" id="elcmakal2t39o"></path></g><g id="elv8f23lzwumq"><path d="M109.14,347h0a.49.49,0,0,1,.49.49V355a.49.49,0,0,1-.49.49h0a.49.49,0,0,1-.49-.49v-7.52A.49.49,0,0,1,109.14,347Z" style="opacity: 0.2; transform-origin: 109.14px 351.245px;" class="animable" id="el2za0ytrnud9"></path></g><g id="elxhmgeotbrt"><path d="M88.67,347h0a.49.49,0,0,1,.49.49V355a.49.49,0,0,1-.49.49h0a.5.5,0,0,1-.5-.49v-7.52A.5.5,0,0,1,88.67,347Z" style="opacity: 0.2; transform-origin: 88.665px 351.245px;" class="animable" id="eltaexsguyxqc"></path></g><g id="elzpcmztibag"><path d="M116.91,355.53h0a.49.49,0,0,1-.49-.49v-7.52a.49.49,0,0,1,.49-.49h0a.49.49,0,0,1,.5.49V355A.49.49,0,0,1,116.91,355.53Z" style="opacity: 0.2; transform-origin: 116.916px 351.28px;" class="animable" id="el88nvuadvqph"></path></g><rect x="86.08" y="336.56" width="61.19" height="9.72" rx="1.35" style="fill: #00FF88; transform-origin: 116.675px 341.42px;" id="el1jw7blbabb3" class="animable"></rect><g id="elm19b0ezv6u"><rect x="86.08" y="336.56" width="61.19" height="9.72" rx="1.35" style="fill: rgb(255, 255, 255); isolation: isolate; opacity: 0.5; transform-origin: 116.675px 341.42px;" class="animable" id="el7efnfg24aze"></rect></g><g id="elxhpjwy5jii7"><path d="M139.18,345.67h0a.49.49,0,0,1-.49-.49v-7.52a.49.49,0,0,1,.49-.49h0a.49.49,0,0,1,.5.49v7.52A.49.49,0,0,1,139.18,345.67Z" style="opacity: 0.2; transform-origin: 139.185px 341.42px;" class="animable" id="elpye0d67222"></path></g><g id="elg1j1shemog"><path d="M132.2,345.67h0a.49.49,0,0,1-.5-.49v-7.52a.49.49,0,0,1,.5-.49h0a.49.49,0,0,1,.49.49v7.52A.49.49,0,0,1,132.2,345.67Z" style="opacity: 0.2; transform-origin: 132.195px 341.42px;" class="animable" id="elqwdkcdyav7"></path></g><g id="eljvli0t0pgdb"><path d="M124.45,345.67h0a.5.5,0,0,1-.5-.49v-7.52a.5.5,0,0,1,.5-.49h0a.49.49,0,0,1,.49.49v7.52A.49.49,0,0,1,124.45,345.67Z" style="opacity: 0.2; transform-origin: 124.445px 341.42px;" class="animable" id="ellnejstt7qrp"></path></g><g id="el3w0hu9u8vcr"><path d="M144.92,345.67h0a.49.49,0,0,1-.49-.49v-7.52a.49.49,0,0,1,.49-.49h0a.5.5,0,0,1,.5.49v7.52A.5.5,0,0,1,144.92,345.67Z" style="opacity: 0.2; transform-origin: 144.925px 341.42px;" class="animable" id="elip5xidzo5kb"></path></g><g id="el4mdgqhtaeot"><path d="M94.16,337.17h0a.5.5,0,0,1,.5.49v7.52a.5.5,0,0,1-.5.49h0a.49.49,0,0,1-.49-.49v-7.52A.49.49,0,0,1,94.16,337.17Z" style="opacity: 0.2; transform-origin: 94.165px 341.42px;" class="animable" id="elpt0swtcmy8o"></path></g><g id="elew1vtsd3elu"><path d="M101.15,337.17h0a.5.5,0,0,1,.5.49v7.52a.5.5,0,0,1-.5.49h0a.49.49,0,0,1-.49-.49v-7.52A.49.49,0,0,1,101.15,337.17Z" style="opacity: 0.2; transform-origin: 101.155px 341.42px;" class="animable" id="elzkh52jd5uqm"></path></g><g id="elvpane98dzh9"><path d="M108.9,337.17h0a.49.49,0,0,1,.49.49v7.52a.49.49,0,0,1-.49.49h0a.5.5,0,0,1-.5-.49v-7.52A.5.5,0,0,1,108.9,337.17Z" style="opacity: 0.2; transform-origin: 108.895px 341.42px;" class="animable" id="elm9w7497wvu"></path></g><g id="elxo41gkbee"><path d="M88.43,337.17h0a.49.49,0,0,1,.49.49v7.52a.49.49,0,0,1-.49.49h0a.49.49,0,0,1-.5-.49v-7.52A.49.49,0,0,1,88.43,337.17Z" style="opacity: 0.2; transform-origin: 88.425px 341.42px;" class="animable" id="eloyayucktijo"></path></g><g id="el863wjpba129"><path d="M116.67,345.67h0a.49.49,0,0,1-.49-.49v-7.52a.49.49,0,0,1,.49-.49h0a.49.49,0,0,1,.5.49v7.52A.49.49,0,0,1,116.67,345.67Z" style="opacity: 0.2; transform-origin: 116.675px 341.42px;" class="animable" id="elof4mcka4fds"></path></g></g><g id="freepik--coin-2--inject-4" class="animable" style="transform-origin: 114.87px 281.2px;"><g id="elb2s5fkljn8b"><circle cx="114.87" cy="281.2" r="30.59" style="fill: #00FF88; transform-origin: 114.87px 281.2px; transform: rotate(-56.47deg);" class="animable" id="elr8gbq9rebi8"></circle></g><g id="el9fy45kpmch"><path d="M141.58,296.12a30.58,30.58,0,0,1-40.64,12.3c-.34-.16-.66-.34-1-.52a30.37,30.37,0,0,1-9.16-7.84,30.59,30.59,0,0,1,27.26-49.29,28.55,28.55,0,0,1,5.18,1,29.83,29.83,0,0,1,6.55,2.71A30.6,30.6,0,0,1,141.58,296.12Z" style="fill: rgb(255, 255, 255); isolation: isolate; opacity: 0.5; transform-origin: 114.866px 281.194px;" class="animable" id="elgzgsewikqyj"></path></g><g id="elu7w2z0f9rh"><path d="M107.81,275.37c.4,2,2.38,2.55,4.94,2.77l-1.5-7.41C108.38,271.79,107.44,273.54,107.81,275.37Z" style="opacity: 0.1; transform-origin: 110.242px 274.435px;" class="animable" id="elf0ksqr5a0r"></path></g><g id="elwj9eyepnj9m"><path d="M117.36,283.36l1.5,7.37c3-1.07,4-2.75,3.59-4.54C122,284.15,120,283.56,117.36,283.36Z" style="opacity: 0.1; transform-origin: 119.949px 287.045px;" class="animable" id="el5c1rkf3fl8i"></path></g><g id="el1qe81wrx7gk"><path d="M109.39,254.19a27.56,27.56,0,1,0,32.49,21.53A27.55,27.55,0,0,0,109.39,254.19Zm12.45,16.6a17.61,17.61,0,0,0-7.2-.88l1.7,8.41c4.85.19,10.19.62,11.36,6.41.86,4.25-1.52,8.55-7.92,10.54l1,4.67-3.42.69-.94-4.62c-4.13.58-8.35.05-10.9-1.39l1-4.58a16.35,16.35,0,0,0,9,1.47l-1.69-8.33c-4.85-.19-10.11-.68-11.28-6.47-.87-4.25,1.46-8.58,7.83-10.52l-.95-4.71,3.42-.69.93,4.62a18.21,18.21,0,0,1,9,.83Z" style="opacity: 0.1; transform-origin: 114.87px 281.199px;" class="animable" id="elnzt5u26g8k"></path></g><g id="el8d7q98zce7t"><g style="opacity: 0.1; transform-origin: 103.751px 279.595px;" class="animable" id="elyjthtlfj3t"><path d="M110.09,251l-19.3,49.08A30.58,30.58,0,0,1,110.09,251Z" style="fill: rgb(255, 255, 255); transform-origin: 97.1807px 275.54px;" id="ele3g7f3avzq8" class="animable"></path><path d="M123.23,251.78l-22.29,56.64c-.34-.16-.66-.34-1-.52a29.42,29.42,0,0,1-3.49-2.27l21.59-54.86A28.55,28.55,0,0,1,123.23,251.78Z" style="fill: rgb(255, 255, 255); transform-origin: 109.84px 279.595px;" id="elwrpzkpqabri" class="animable"></path></g></g></g><g id="freepik--coin-1--inject-4" class="animable" style="transform-origin: 150.64px 208.72px;"><g id="el0kf5ygzqjvuf"><circle cx="150.64" cy="208.72" r="30.59" style="fill: #00FF88; transform-origin: 150.64px 208.72px; transform: rotate(-22.34deg);" class="animable" id="elik0xg0jj2"></circle></g><g id="el5eiivwrwalp"><path d="M178.87,220.51a30.58,30.58,0,0,1-39,16.84c-.35-.12-.69-.26-1-.4a29.34,29.34,0,0,1-3.72-1.86,29.9,29.9,0,0,1-6.27-4.89,30.59,30.59,0,0,1,13.6-51,30.23,30.23,0,0,1,7.88-1.11,28.4,28.4,0,0,1,5.26.41,29.81,29.81,0,0,1,6.82,2A30.6,30.6,0,0,1,178.87,220.51Z" style="fill: rgb(255, 255, 255); isolation: isolate; opacity: 0.5; transform-origin: 150.632px 208.7px;" class="animable" id="elyygmfvcszu8"></path></g><g id="eliisq04vjfwc"><path d="M148.06,199.94c-.78,1.88.54,3.45,2.54,5.06l2.91-7C150.55,197.29,148.78,198.21,148.06,199.94Z" style="opacity: 0.1; transform-origin: 150.671px 201.379px;" class="animable" id="eltryw9cw24yl"></path></g><g id="elez3eddx384f"><path d="M151.49,211.91l-2.9,7c3,.76,4.82-.07,5.52-1.75C154.91,215.19,153.56,213.56,151.49,211.91Z" style="opacity: 0.1; transform-origin: 151.467px 215.552px;" class="animable" id="el67iujaz7zk7"></path></g><g id="eltgjo9wqd6z"><path d="M161.25,183.29a27.56,27.56,0,1,0,14.82,36.05A27.56,27.56,0,0,0,161.25,183.29Zm1,20.73a17.46,17.46,0,0,0-5.47-4.77l-3.31,7.92c3.91,2.88,8.08,6.23,5.81,11.68-1.67,4-6.05,6.22-12.47,4.28L145,227.52l-3.21-1.34,1.82-4.35c-3.75-1.84-7-4.65-8.25-7.27l3.41-3.22a16.39,16.39,0,0,0,6.6,6.25l3.28-7.84c-3.91-2.88-8-6.24-5.72-11.69,1.67-4,6-6.28,12.4-4.31l1.85-4.43,3.21,1.34L158.55,195a18.29,18.29,0,0,1,7,5.72Z" style="opacity: 0.1; transform-origin: 150.637px 208.724px;" class="animable" id="elk5g1w5d0jl"></path></g><g id="elwbjk23k4p1r"><g style="opacity: 0.1; transform-origin: 137.808px 207.72px;" class="animable" id="eli1q35cgeqb8"><path d="M142.46,179.24l-13.6,51a30.59,30.59,0,0,1,13.6-51Z" style="fill: rgb(255, 255, 255); transform-origin: 131.238px 204.74px;" id="el0kjm2hc8nd8b" class="animable"></path><path d="M155.6,178.54l-15.71,58.81c-.35-.12-.69-.26-1-.4a29.34,29.34,0,0,1-3.72-1.86l15.21-57A28.4,28.4,0,0,1,155.6,178.54Z" style="fill: rgb(255, 255, 255); transform-origin: 145.385px 207.72px;" id="eledoc09s8at" class="animable"></path></g></g></g><g id="freepik--Arrow--inject-4" class="animable" style="transform-origin: 133.135px 151.055px;"><polygon points="122.8 151.45 133.14 163.35 143.47 151.45 138.36 151.45 138.36 138.76 127.91 138.76 127.91 151.45 122.8 151.45" style="fill: #00FF88; transform-origin: 133.135px 151.055px;" id="el5tbm8c5ywj" class="animable"></polygon></g><g id="freepik--Character--inject-4" class="animable" style="transform-origin: 230.852px 278.403px;"><path d="M241.13,183.73l3.2.23,3.24.2c2.15.12,4.3.24,6.34.24,1,0,2,0,2.91-.08.44,0,.88-.07,1.23-.12s.66-.1.77-.11.06,0,.05,0a.3.3,0,0,0-.08.08s0,0,.12-.06a3.08,3.08,0,0,0,.59-.53,14.29,14.29,0,0,0,1.49-2,46.19,46.19,0,0,0,2.8-5.45c.86-2,1.67-4,2.45-6.05,1.54-4.12,3-8.42,4.35-12.63l5.58,1a108.14,108.14,0,0,1-2.06,13.87c-.5,2.3-1.07,4.6-1.78,6.91a46.78,46.78,0,0,1-2.71,7A22.64,22.64,0,0,1,267.4,190a14.5,14.5,0,0,1-1.76,1.94,11.72,11.72,0,0,1-1.23,1c-.27.17-.54.34-.82.5l-.73.36a16.45,16.45,0,0,1-2.49.88,21,21,0,0,1-2.13.46c-1.35.23-2.63.37-3.88.47a76.42,76.42,0,0,1-14.46-.41Z" style="fill: rgb(228, 137, 123); transform-origin: 258.035px 176.614px;" id="elg2u8jyud95p" class="animable"></path><path d="M241,181.43l15.07,1.4L250.3,200s-11.38,4.1-15.6-1.66S229.87,181.56,241,181.43Z" style="fill: #00FF88; transform-origin: 243.98px 191.422px;" id="elsm1d5cirym9" class="animable"></path><g id="elze24zb3jyam"><path d="M256.05,182.83,250.3,200s-.89.32-2.28.66a20.42,20.42,0,0,1-8.93.41h0a7.28,7.28,0,0,1-4.38-2.73c-4.22-5.75-4.82-16.74,6.28-16.87Z" style="fill: rgb(255, 255, 255); opacity: 0.7; transform-origin: 243.975px 191.426px;" class="animable" id="el0efo403xfmn"></path></g><g id="elto5l4nr8gef"><path d="M248,200.62a20.42,20.42,0,0,1-8.93.41h0c-2.07-4.38.12-11.45,3-9.63C245.18,193.31,247.07,197.74,248,200.62Z" style="opacity: 0.2; transform-origin: 243.127px 196.224px;" class="animable" id="el7xqgta38k3w"></path></g><path d="M270.45,157.65l5.2-5.69,3.21,7.92s-4.95,4.8-7.31,2.15Z" style="fill: rgb(228, 137, 123); transform-origin: 274.655px 157.394px;" id="elay4idrz2v7r" class="animable"></path><polygon points="282.98 149.82 283.42 157.57 278.86 159.88 275.65 151.96 282.98 149.82" style="fill: rgb(228, 137, 123); transform-origin: 279.535px 154.85px;" id="eln213br26nzj" class="animable"></polygon><polygon points="238.07 409.78 245.54 408.48 244.68 390.89 237.22 392.19 238.07 409.78" style="fill: rgb(228, 137, 123); transform-origin: 241.38px 400.335px;" id="elhywopu5xpno" class="animable"></polygon><polygon points="181.1 409.26 188.54 410.58 193.72 393.72 186.28 392.39 181.1 409.26" style="fill: rgb(228, 137, 123); transform-origin: 187.41px 401.485px;" id="elcewa582re6k" class="animable"></polygon><g id="elyt52bapx77a"><polygon points="244.68 390.9 245.13 399.96 237.66 401.26 237.21 392.2 244.68 390.9" style="opacity: 0.2; transform-origin: 241.17px 396.08px;" class="animable" id="elf1ez9kthkf8"></polygon></g><g id="elb59jwzo6d4a"><polygon points="186.27 392.4 193.72 393.72 191.05 402.41 183.6 401.09 186.27 392.4" style="opacity: 0.2; transform-origin: 188.66px 397.405px;" class="animable" id="elsg7rg008gjl"></polygon></g><path d="M247.64,397.75,235,400s-2-42.5-2.92-66a246.51,246.51,0,0,0-3.39-27.9c-2.24-13.51-5.19-28.15-7.63-39.62-2.58-12.08-4.58-20.64-4.58-20.64l26.61-.64s9.56,59.87,10,82.94C253.55,352.05,247.64,397.75,247.64,397.75Z" style="fill: rgb(38, 50, 56); transform-origin: 234.798px 322.6px;" id="elhy6jp4utt8u" class="animable"></path><g id="el861ct81ew0x"><path d="M228.69,306c-2.24-13.51-5.19-28.15-7.63-39.62l3.08-5.8C230.28,268.72,230.7,293,228.69,306Z" style="opacity: 0.2; transform-origin: 225.414px 283.29px;" class="animable" id="elenhp7fak9t4"></path></g><path d="M228.73,245.48s-6.84,65.1-10.45,87c-3.95,24-23.47,68.84-23.47,68.84l-13.63-2.43s13-41.3,15.36-65.32c2.69-26.86,6.08-87.46,6.08-87.46Z" style="fill: rgb(38, 50, 56); transform-origin: 204.955px 323.4px;" id="elfd566eektin" class="animable"></path><polygon points="196.39 401.89 180.33 399.04 181.24 394.25 198.17 396.26 196.39 401.89" style="fill: #00FF88; transform-origin: 189.25px 398.07px;" id="elodu1cmrg59" class="animable"></polygon><polygon points="249.25 397.88 234.15 400.29 233.42 395.43 249.98 392.53 249.25 397.88" style="fill: #00FF88; transform-origin: 241.7px 396.41px;" id="eltup7jag6im" class="animable"></polygon><path d="M246.27,406.87l-8.28-.23a.68.68,0,0,0-.66.5l-1.74,6.66a1.09,1.09,0,0,0,1,1.37c3,0,7.31,0,11.06.08,4.38.12,7.17-.1,12.32,0,3.11.08,4.08-3,2.79-3.34-5.88-1.45-9.72-1.17-14.73-4.45A3.46,3.46,0,0,0,246.27,406.87Z" style="fill: rgb(38, 50, 56); transform-origin: 249.434px 410.963px;" id="elquaj0h92pec" class="animable"></path><path d="M246.86,407.78a.17.17,0,0,1,.1-.18c.35-.17,3.45-1.63,4.36-1.09a.55.55,0,0,1,.27.49,1,1,0,0,1-.36.86c-.86.71-3,.35-4.23.08h0A.18.18,0,0,1,246.86,407.78Zm.75-.08c1.66.32,2.91.28,3.39-.12a.68.68,0,0,0,.24-.57.22.22,0,0,0-.11-.19l-.07,0C250.5,406.58,248.83,407.16,247.61,407.7Z" style="fill: #00FF88; transform-origin: 249.226px 407.333px;" id="elr46pnhmppt" class="animable"></path><path d="M246.93,407.9a.16.16,0,0,1-.07-.16c0-.09.29-2.11,1.28-2.87a1.28,1.28,0,0,1,1-.28c.49.06.62.31.65.51.11.86-1.76,2.44-2.69,2.83H247Zm2.17-3a1,1,0,0,0-.74.21,4.17,4.17,0,0,0-1.08,2.3c.95-.54,2.23-1.78,2.16-2.3,0,0,0-.11-.16-.17Z" style="fill: #00FF88; transform-origin: 248.326px 406.253px;" id="elo498bl6ncn" class="animable"></path><path d="M198.59,182.26a167.89,167.89,0,0,1,3.53,25c.42,5.88.56,11.48.57,16.55,0,11.9-.71,20.94-.51,24l40.46-1.15C250.33,204,241,181.43,241,181.43a77.35,77.35,0,0,0-9.59-1.59c-.68-.07-1.37-.13-2.08-.17a149,149,0,0,0-17.2.49c-1.09.08-2.18.19-3.25.32C203.41,181.14,198.59,182.26,198.59,182.26Z" style="fill: #00FF88; transform-origin: 222.134px 213.708px;" id="elt647wx59oal" class="animable"></path><g id="elg6xo40nya4e"><path d="M198.59,182.26a167.89,167.89,0,0,1,3.53,25c.42,5.88.56,11.48.57,16.55,0,11.9-.71,20.94-.51,24l40.46-1.15C250.33,204,241,181.43,241,181.43a77.35,77.35,0,0,0-9.59-1.59c-.68-.07-1.37-.13-2.08-.17a149,149,0,0,0-17.2.49c-1.09.08-2.18.19-3.25.32C203.41,181.14,198.59,182.26,198.59,182.26Z" style="fill: rgb(255, 255, 255); opacity: 0.7; transform-origin: 222.134px 213.708px;" class="animable" id="elmka5jces0j"></path></g><path d="M227.08,187.56c1.06,3,2.81,5.46,4.16,13.3q-.69,2.49-1.62,5-1.44-2.39-3.09-4.77c-.66-7.57.05-9.58-1.06-13.41Z" style="fill: rgb(38, 50, 56); transform-origin: 228.355px 196.71px;" id="elkbi8aqhme0i" class="animable"></path><polygon points="227.04 190 228.36 186.16 225.59 185.04 223.57 186.35 227.04 190" style="fill: rgb(38, 50, 56); transform-origin: 225.965px 187.52px;" id="ely6e1wqf97ai" class="animable"></polygon><path d="M225.47,185.05a17.05,17.05,0,0,1-13.36-4.89,8.38,8.38,0,0,0,2-4.07c1.11-4.69.19-11.26-.68-15.32l10.72,8.7a19.83,19.83,0,0,0-.38,2.13c-.47,3.6.33,7,5.51,8.06C230.41,181.48,230.23,184.81,225.47,185.05Z" style="fill: rgb(228, 137, 123); transform-origin: 220.983px 172.937px;" id="el4hxa6qbcnf4" class="animable"></path><path d="M225.59,185s-1.73,2.36-3.78,4.7c-3.18-1.55-10.67-5.73-10.53-9.86a4.15,4.15,0,0,1,1.92-2A44.68,44.68,0,0,0,225.59,185Z" style="fill: rgb(255, 255, 255); transform-origin: 218.434px 183.77px;" id="elkzht81f5g8" class="animable"></path><path d="M225.59,185a22,22,0,0,1,4.24,4.39c2.19-1.66.63-9.27-.25-10.09a5.28,5.28,0,0,0-3.1-.9S229.15,184,225.59,185Z" style="fill: rgb(255, 255, 255); transform-origin: 228.268px 183.894px;" id="eljc4ljvpgiqf" class="animable"></path><g id="elgu4od1esuvh"><path d="M224.18,169.47a19.83,19.83,0,0,0-.38,2.13,11.37,11.37,0,0,1-9.66,4.49c1.11-4.69.19-11.26-.68-15.32Z" style="opacity: 0.2; transform-origin: 218.82px 168.438px;" class="animable" id="el4pa0tkbv657"></path></g><path d="M205.66,150c-1.12,2.83-1,8.83,3.15,7.18S207.59,145.09,205.66,150Z" style="fill: rgb(38, 50, 56); transform-origin: 207.701px 153.08px;" id="elm3gyxj3ehcc" class="animable"></path><path d="M226.31,155.37c-.09,7.5.25,11.89-3.34,15.88-5.4,6-14.82,2.95-17-4.44-1.94-6.65-1.48-17.79,5.7-21.06A10.35,10.35,0,0,1,226.31,155.37Z" style="fill: rgb(228, 137, 123); transform-origin: 215.649px 159.625px;" id="eldgy075tvo1" class="animable"></path><path d="M215.05,157.92c0,.61-.27,1.12-.67,1.13s-.74-.46-.77-1.07.26-1.12.66-1.13S215,157.31,215.05,157.92Z" style="fill: rgb(38, 50, 56); transform-origin: 214.329px 157.95px;" id="elfgqucillpbw" class="animable"></path><path d="M208.16,158.2c0,.61-.27,1.12-.67,1.13s-.75-.46-.78-1.07.27-1.12.67-1.13S208.12,157.59,208.16,158.2Z" style="fill: rgb(38, 50, 56); transform-origin: 207.434px 158.23px;" id="ela1mr3kxk1fa" class="animable"></path><path d="M210.36,158.41a21.06,21.06,0,0,1-2.71,5.15,3.66,3.66,0,0,0,2.93.37Z" style="fill: rgb(222, 87, 83); transform-origin: 209.115px 161.246px;" id="elk9jvr3x0hmk" class="animable"></path><path d="M214,166.13a6.4,6.4,0,0,1-.79.08A.19.19,0,0,1,213,166a.19.19,0,0,1,.17-.19,4.79,4.79,0,0,0,3.85-2,.18.18,0,0,1,.24-.07.19.19,0,0,1,.07.25A5,5,0,0,1,214,166.13Z" style="fill: rgb(38, 50, 56); transform-origin: 215.175px 164.965px;" id="el01u1g6mz0h0s" class="animable"></path><path d="M217.06,155.61a.37.37,0,0,1-.34-.12,2.9,2.9,0,0,0-2.35-1.1.36.36,0,0,1-.4-.32.35.35,0,0,1,.31-.39,3.56,3.56,0,0,1,3,1.35.35.35,0,0,1-.21.58Z" style="fill: rgb(38, 50, 56); transform-origin: 215.668px 154.645px;" id="eltfdfrlro6gc" class="animable"></path><path d="M205.07,156a.31.31,0,0,1-.21,0,.36.36,0,0,1-.19-.47,3.53,3.53,0,0,1,2.47-2.12.37.37,0,0,1,.42.3.37.37,0,0,1-.29.41,2.75,2.75,0,0,0-1.94,1.7A.35.35,0,0,1,205.07,156Z" style="fill: rgb(38, 50, 56); transform-origin: 206.103px 154.712px;" id="ella8shukxzh" class="animable"></path><path d="M214.33,149.82s2-1.55,3,0,1.1,5.8,1.1,5.8l.39-.77s3,9.35,6.77,6.82,9.06-12.33-.12-16.88c0,0-1.05-2.24-7-3.14s-13,3-14.11,7,.73,6.09.73,6.09a5.69,5.69,0,0,1,1-2.37,2.46,2.46,0,0,0,1.55,1.75,4.19,4.19,0,0,1,.4-2.33,4.84,4.84,0,0,0,1.07,1.85c.27-4.06,3-5,3.86-5A1.47,1.47,0,0,1,214.33,149.82Z" style="fill: rgb(38, 50, 56); transform-origin: 217.285px 151.812px;" id="elbu76loe6pa8" class="animable"></path><path d="M229.5,161.45a7,7,0,0,1-3.3,4.3c-2.18,1.22-3.87-.59-3.78-2.95.08-2.13,1.31-5.33,3.74-5.58A3.23,3.23,0,0,1,229.5,161.45Z" style="fill: rgb(228, 137, 123); transform-origin: 226.04px 161.675px;" id="el00bd7plgom1do" class="animable"></path><path d="M189,406.87l-8.28-.23a.68.68,0,0,0-.66.5l-1.74,6.66a1.09,1.09,0,0,0,1,1.37c3,0,7.31,0,11.06.08,4.39.12,7.18-.1,12.32,0,3.11.08,4.09-3,2.79-3.34-5.88-1.45-9.72-1.17-14.73-4.45A3.46,3.46,0,0,0,189,406.87Z" style="fill: rgb(38, 50, 56); transform-origin: 192.166px 410.963px;" id="ellsmrhb7cvv" class="animable"></path><path d="M189.61,407.78a.19.19,0,0,1,.1-.18c.35-.17,3.45-1.63,4.36-1.09a.58.58,0,0,1,.28.49,1,1,0,0,1-.37.86c-.86.71-3,.35-4.23.08h0A.17.17,0,0,1,189.61,407.78Zm.75-.08c1.66.32,2.91.28,3.39-.12A.65.65,0,0,0,194,407a.22.22,0,0,0-.11-.19l-.06,0C193.25,406.58,191.58,407.16,190.36,407.7Z" style="fill: #00FF88; transform-origin: 191.981px 407.333px;" id="elmmdl1kyoug" class="animable"></path><path d="M189.68,407.9a.16.16,0,0,1-.07-.16c0-.09.29-2.11,1.28-2.87a1.29,1.29,0,0,1,1-.28c.49.06.62.31.65.51.11.86-1.76,2.44-2.69,2.83h-.13Zm2.17-3a1,1,0,0,0-.74.21,4.24,4.24,0,0,0-1.08,2.3c.95-.54,2.23-1.78,2.16-2.3,0,0,0-.11-.16-.17Z" style="fill: #00FF88; transform-origin: 191.076px 406.254px;" id="el9znn0nhozpu" class="animable"></path><path d="M246.62,223.39c0,.34,0,.69-.05,1-.1,2.17-.26,4.43-.47,6.76-.07.81-.15,1.63-.23,2.46-.15,1.42-.32,2.87-.52,4.35-.25,2-.56,4.05-.9,6.16-.15.92-.32,1.85-.48,2.79-12.18.35-35.86.76-41.79.92,0-.67,0-1.63,0-2.83,0-1.62.12-3.69.21-6.15.05-1.33.1-2.79.15-4.34,0-.79,0-1.6.06-2.44,0-2.11.09-4.38.09-6.77,0-.34,0-.68,0-1v-.46c0-2.82-.05-5.81-.17-8.91-.08-2.48-.21-5-.4-7.65-.16-2.38-.37-4.81-.65-7.26a156.49,156.49,0,0,0-2.88-17.78s4.82-1.11,10.26-1.77a130.66,130.66,0,0,1,20.77,25.36c3.29-8.82,4.37-17.47,2.69-25.9a78,78,0,0,1,8.67,1.49S247.76,195.9,246.62,223.39Z" style="fill: #00FF88; transform-origin: 222.67px 213.88px;" id="el0plcscmyx29f" class="animable"></path><g id="eljdt2d3vhkho"><path d="M245.35,238c-.25,2-.56,4.05-.9,6.16l-42.28.88c0-1.62.12-3.69.21-6.15Z" style="fill: rgb(255, 255, 255); opacity: 0.4; transform-origin: 223.76px 241.52px;" class="animable" id="elvwngw85t67r"></path></g><g id="elyt6ap48guch"><path d="M246.1,231.19c-.07.81-.15,1.63-.23,2.46l-43.34.9c0-.79,0-1.6.06-2.44Z" style="fill: rgb(255, 255, 255); opacity: 0.4; transform-origin: 224.315px 232.87px;" class="animable" id="el44stohqbqvb"></path></g><g id="elheh8qvq32o"><path d="M246.62,223.39c0,.34,0,.69-.05,1l-43.89.91c0-.34,0-.68,0-1Z" style="fill: rgb(255, 255, 255); opacity: 0.4; transform-origin: 224.65px 224.345px;" class="animable" id="elydx1wpos18"></path></g><g id="el6xwefme0jg5"><path d="M202.52,214.94c-.08-2.48-.21-5-.4-7.65-.16-2.38-.37-4.81-.65-7.26,1.67-1.6,3.54-2.6,5.39-2.46C206.86,197.57,208.89,211.49,202.52,214.94Z" style="opacity: 0.2; transform-origin: 204.319px 206.248px;" class="animable" id="elltaxsguaur"></path></g><path d="M204.35,193c-2,4.59-4,9.44-5.75,14.17-.89,2.37-1.67,4.76-2.37,7.1a37.41,37.41,0,0,0-1.42,6.63,12.23,12.23,0,0,0-.06,1.27c0,.17,0,.32,0,.42v.16a.21.21,0,0,0,0-.06c-.1-.16-.2-.22-.17-.14a1.58,1.58,0,0,0,.48.46,9.93,9.93,0,0,0,2.47,1.13,28.27,28.27,0,0,0,3.3.86,107.58,107.58,0,0,0,15,1.62l.59,5.64a64,64,0,0,1-16.68,1.58,36.34,36.34,0,0,1-4.5-.52,19.94,19.94,0,0,1-5-1.61,12.13,12.13,0,0,1-2.74-1.85,9.74,9.74,0,0,1-2.4-3.38L185,226l-.14-.44a8.08,8.08,0,0,1-.22-.84,13.39,13.39,0,0,1-.26-1.54,19.56,19.56,0,0,1-.13-2.69,43.41,43.41,0,0,1,1.3-9c.65-2.78,1.46-5.43,2.32-8.06s1.81-5.18,2.84-7.7,2.06-5,3.29-7.54Z" style="fill: rgb(228, 137, 123); transform-origin: 200.333px 211.037px;" id="elll1i6th1d2" class="animable"></path><path d="M196.4,183c-6.56,3.1-12.16,24-12.16,24L202,212.32a105.93,105.93,0,0,0,5.64-18.25C209.6,184.06,204.34,179.24,196.4,183Z" style="fill: #00FF88; transform-origin: 196.146px 197.023px;" id="elcxcblegb6n" class="animable"></path><g id="eloinavis2uto"><path d="M196.4,183c-6.56,3.1-12.16,24-12.16,24L202,212.32a105.93,105.93,0,0,0,5.64-18.25C209.6,184.06,204.34,179.24,196.4,183Z" style="fill: rgb(255, 255, 255); opacity: 0.7; transform-origin: 196.146px 197.023px;" class="animable" id="elvl4dh2zlnfg"></path></g><path d="M214,226.57l6.25-4.45,1.75,9.54s-6.14,2.6-7.87-.53Z" style="fill: rgb(228, 137, 123); transform-origin: 218px 227.397px;" id="el087zt4q7as09" class="animable"></path><polygon points="226.48 222.39 227.56 230.35 221.95 231.66 220.2 222.12 226.48 222.39" style="fill: rgb(228, 137, 123); transform-origin: 223.88px 226.89px;" id="el8j90fjjf53q" class="animable"></polygon></g><g id="freepik--Device--inject-4" class="animable animator-active" style="transform-origin: 341.51px 283.375px;"><rect x="273.07" y="151.46" width="136.88" height="263.83" rx="6.73" style="fill: rgb(38, 50, 56); transform-origin: 341.51px 283.375px;" id="el75mqedvkph6" class="animable"></rect><path d="M407.19,159V398.22a3.9,3.9,0,0,1-3.95,3.9H279.37a3.26,3.26,0,0,1-.9-.12,3.22,3.22,0,0,1-1.58-.88,3.54,3.54,0,0,1-1.06-2.58V158.68a3.14,3.14,0,0,1,3-3.26H314A2.46,2.46,0,0,1,316.3,157l1.47,3.58a2.46,2.46,0,0,0,2.26,1.57h43.05a2.46,2.46,0,0,0,2.26-1.54l1.46-3.6a2.48,2.48,0,0,1,2.27-1.59h34.67A3.55,3.55,0,0,1,407.19,159Z" style="fill: #00FF88; transform-origin: 341.509px 278.77px;" id="eleq2z47yuqde" class="animable"></path><g id="el5y3kuc8u8aw"><rect x="292.17" y="163.7" width="1.83" height="2.44" style="fill: rgb(255, 255, 255); isolation: isolate; opacity: 0.6; transform-origin: 293.085px 164.92px; transform: rotate(180deg);" class="animable" id="elhxr4ip3tklg"></rect></g><g id="elzmuibo8up"><rect x="289.18" y="162.88" width="1.83" height="3.25" style="fill: rgb(255, 255, 255); isolation: isolate; opacity: 0.6; transform-origin: 290.095px 164.505px; transform: rotate(180deg);" class="animable" id="elpxwr5ipjae"></rect></g><g id="elw20couhgh3c"><rect x="286.2" y="162.07" width="1.83" height="4.07" style="fill: rgb(255, 255, 255); isolation: isolate; opacity: 0.6; transform-origin: 287.115px 164.105px; transform: rotate(180deg);" class="animable" id="elt5dwivonbr"></rect></g><g id="el63acs45dsil"><rect x="283.22" y="161.25" width="1.83" height="4.88" style="fill: rgb(255, 255, 255); isolation: isolate; opacity: 0.6; transform-origin: 284.135px 163.69px; transform: rotate(180deg);" class="animable" id="elk5aw6tn17vj"></rect></g><g id="el9ivypu2j1as"><rect x="389.33" y="162.81" width="1.08" height="2.44" style="fill: rgb(255, 255, 255); isolation: isolate; opacity: 0.6; transform-origin: 389.87px 164.03px;" class="animable" id="elkcu5deqi12r"></rect></g><g id="elmzgrw0v513d"><rect x="391.16" y="161.92" width="8.64" height="4.22" style="fill: rgb(255, 255, 255); isolation: isolate; opacity: 0.6; transform-origin: 395.48px 164.03px; transform: rotate(180deg);" class="animable" id="elyphut0nz7ll"></rect></g><g id="elmn70g0fpr7"><rect x="275.83" y="172.18" width="131.35" height="210.38" style="fill: rgb(255, 255, 255); isolation: isolate; opacity: 0.3; transform-origin: 341.505px 277.37px;" class="animable" id="el1uxvbzn4tqi"></rect></g><rect x="303.27" y="317.12" width="76.47" height="22.36" rx="3.63" style="fill: #00FF88; transform-origin: 341.505px 328.3px;" id="elo9815fo2yyn" class="animable"></rect><path d="M319.66,333l-1.86-2.67h-2.41V333H313.7v-9.11h3.74c2.4,0,3.88,1.22,3.88,3.24a2.92,2.92,0,0,1-1.94,2.88l2.1,3Zm-2.29-7.68h-2V329h2c1.48,0,2.25-.67,2.25-1.82S318.85,325.32,317.37,325.32Z" style="fill: rgb(255, 255, 255); transform-origin: 317.59px 328.45px;" id="elzz24m43dll" class="animable"></path><path d="M330,331.58V333h-6.83v-9.11h6.65v1.42h-5v2.37h4.4v1.39h-4.4v2.51Z" style="fill: rgb(255, 255, 255); transform-origin: 326.585px 328.445px;" id="elqho3lckwnbh" class="animable"></path><path d="M333.62,325.31v2.77H338v1.43h-4.4V333h-1.69v-9.11h6.65v1.42Z" style="fill: rgb(255, 255, 255); transform-origin: 335.235px 328.445px;" id="elwk4y2oz47rl" class="animable"></path><path d="M340.14,329v-5.14h1.69V329c0,1.88.84,2.69,2.31,2.69s2.31-.81,2.31-2.69v-5.07h1.66V329c0,2.66-1.49,4.1-4,4.1S340.14,331.69,340.14,329Z" style="fill: rgb(255, 255, 255); transform-origin: 344.125px 328.48px;" id="eluyulwx2chr" class="animable"></path><path d="M358.58,323.89V333h-1.4l-5-6.17V333h-1.68v-9.11h1.39l5,6.17v-6.17Z" style="fill: rgb(255, 255, 255); transform-origin: 354.54px 328.445px;" id="eldd7gh0sgu0j" class="animable"></path><path d="M361,323.89h4c3,0,5,1.82,5,4.55s-2,4.56-5,4.56h-4Zm3.9,7.68a3.13,3.13,0,1,0,0-6.25h-2.21v6.25Z" style="fill: rgb(255, 255, 255); transform-origin: 365.5px 328.445px;" id="ella1xktkxyg" class="animable"></path><g id="elu13uphqrh68"><rect x="275.83" y="172.18" width="131.35" height="12.86" style="fill: rgb(255, 255, 255); isolation: isolate; opacity: 0.3; transform-origin: 341.505px 178.61px;" class="animable" id="ely1ips9e8nx"></rect></g><g id="elozuibma4k9n"><circle cx="341.51" cy="258.67" r="39.54" style="fill: #00FF88; transform-origin: 341.51px 258.67px; transform: rotate(-76.72deg);" class="animable" id="elzk1q32r5bwj"></circle></g><path d="M353.58,273.69H329.43a1.33,1.33,0,0,1-1.3-1.1l-4.26-25.16a1.29,1.29,0,0,1,.29-1.07,1.31,1.31,0,0,1,1-.47h32.68a1.32,1.32,0,0,1,1.3,1.54l-4.26,25.16A1.33,1.33,0,0,1,353.58,273.69Zm-23-2.64h21.92l3.81-22.52H326.73Z" style="fill: rgb(255, 255, 255); transform-origin: 341.504px 259.79px;" id="elxva6krevq5k" class="animable"></path><path d="M345.52,273.69h-8a1.33,1.33,0,0,1-1.32-1.25l-1.42-25.16a1.32,1.32,0,0,1,1.32-1.39h10.85a1.32,1.32,0,0,1,1.32,1.39l-1.41,25.16A1.33,1.33,0,0,1,345.52,273.69Zm-6.77-2.64h5.52l1.26-22.52h-8Z" style="fill: rgb(255, 255, 255); transform-origin: 341.525px 259.79px;" id="elhor1sz83lu8" class="animable"></path><path d="M356.18,257H326.83a1.33,1.33,0,0,1,0-2.65h29.35a1.33,1.33,0,1,1,0,2.65Z" style="fill: rgb(255, 255, 255); transform-origin: 341.62px 255.675px;" id="elyjswsoct9g" class="animable"></path><path d="M354.61,265.4H328.4a1.32,1.32,0,0,1,0-2.64h26.21a1.32,1.32,0,1,1,0,2.64Z" style="fill: rgb(255, 255, 255); transform-origin: 341.505px 264.08px;" id="elpelkccfljp" class="animable"></path><path d="M355,283.63a4.16,4.16,0,1,1,4.17-4.16A4.16,4.16,0,0,1,355,283.63Zm0-5.68a1.52,1.52,0,1,0,1.52,1.52A1.53,1.53,0,0,0,355,278Z" style="fill: rgb(255, 255, 255); transform-origin: 355.01px 279.47px;" id="el7tj1et376fv" class="animable"></path><path d="M328,283.63a4.16,4.16,0,1,1,4.17-4.16A4.16,4.16,0,0,1,328,283.63Zm0-5.68a1.52,1.52,0,1,0,1.52,1.52A1.52,1.52,0,0,0,328,278Z" style="fill: rgb(255, 255, 255); transform-origin: 328.01px 279.47px;" id="elakijrl3tb2n" class="animable"></path><polygon points="346.08 237.04 341.51 231.78 336.94 237.04 339.2 237.04 339.2 242.64 343.82 242.64 343.82 237.04 346.08 237.04" style="fill: rgb(255, 255, 255); transform-origin: 341.51px 237.21px;" id="eltcfhy5tg0ek" class="animable"></polygon><path d="M357.85,248.53a1.32,1.32,0,0,1-.39-2.58l7-2.17a1.32,1.32,0,1,1,.77,2.52l-7,2.17A1.37,1.37,0,0,1,357.85,248.53Z" style="fill: rgb(255, 255, 255); transform-origin: 361.388px 246.113px;" id="el56bcowoad4l" class="animable"></path><g id="el4pveoa57tci"><g style="isolation: isolate; opacity: 0.1; transform-origin: 341.51px 278.765px;" class="animable" id="elrb8tzx4tcg"><path d="M334.93,162.15,297.11,303.79h0l-.42,1.59h0L296,308h0l-.43,1.59-19.74,74V294l37-138.59H314A2.47,2.47,0,0,1,316.3,157l1.46,3.58a2.47,2.47,0,0,0,2.26,1.57Z" style="fill: rgb(255, 255, 255); transform-origin: 305.38px 269.5px;" id="el5cenoa7rxld" class="animable"></path><polygon points="407.19 234.49 407.19 324 386.33 402.12 362.44 402.12 362.88 400.45 363.51 398.11 364.76 393.43 365.38 391.09 366.62 386.4 367.25 384.07 386.92 310.43 386.92 310.42 387.82 307.02 407.19 234.49" style="fill: rgb(255, 255, 255); transform-origin: 384.815px 318.305px;" id="elphdt3se3zi" class="animable"></polygon><path d="M347.88,162.15,310.3,302.91l-.23.84L308,311.47l-.23.84-24,89.81h-4.45a3.26,3.26,0,0,1-.9-.12l23.94-89.69.24-.84,2.05-7.72.23-.84,37.58-140.76Z" style="fill: rgb(255, 255, 255); transform-origin: 313.15px 282.135px;" id="elcqlwbggg3ab" class="animable"></path></g></g></g><defs>     <filter id="active" height="200%">         <feMorphology in="SourceAlpha" result="DILATED" operator="dilate" radius="2"></feMorphology>                <feFlood flood-color="#32DFEC" flood-opacity="1" result="PINK"></feFlood>        <feComposite in="PINK" in2="DILATED" operator="in" result="OUTLINE"></feComposite>        <feMerge>            <feMergeNode in="OUTLINE"></feMergeNode>            <feMergeNode in="SourceGraphic"></feMergeNode>        </feMerge>    </filter>    <filter id="hover" height="200%">        <feMorphology in="SourceAlpha" result="DILATED" operator="dilate" radius="2"></feMorphology>                <feFlood flood-color="#ff0000" flood-opacity="0.5" result="PINK"></feFlood>        <feComposite in="PINK" in2="DILATED" operator="in" result="OUTLINE"></feComposite>        <feMerge>            <feMergeNode in="OUTLINE"></feMergeNode>            <feMergeNode in="SourceGraphic"></feMergeNode>        </feMerge>            <feColorMatrix type="matrix" values="0   0   0   0   0                0   1   0   0   0                0   0   0   0   0                0   0   0   1   0 "></feColorMatrix>    </filter></defs></svg>